<?xml version="1.0" encoding="utf-8"?>
<!-- Generator: Adobe Illustrator 24.0.1, SVG Export Plug-In . SVG Version: 6.00 Build 0)  -->
<svg version="1.1" id="Layer_1" xmlns="http://www.w3.org/2000/svg" xmlns:xlink="http://www.w3.org/1999/xlink" x="0px" y="0px"
	 viewBox="0 0 372 208" style="enable-background:new 0 0 372 208;" xml:space="preserve">
<style type="text/css">
	.st0{fill:#FFFFFF;}
	.st1{fill:#2F499F;}
	.st2{display:none;fill:none;stroke:#2F499F;stroke-miterlimit:10;}
	.st3{display:none;}
	.st4{display:inline;fill:none;stroke:#2F499F;stroke-linecap:round;stroke-linejoin:round;stroke-miterlimit:10;}
	.st5{display:inline;}
	.st6{fill:none;stroke:#2F499F;stroke-linecap:round;stroke-linejoin:round;stroke-miterlimit:10;}
	.st7{display:inline;fill:#2F499F;stroke:#2F499F;stroke-linecap:round;stroke-linejoin:round;stroke-miterlimit:10;}
	.st8{fill:none;stroke:#2F499F;stroke-width:2;stroke-miterlimit:10;}
	.st9{display:inline;fill:none;stroke:#2F499F;stroke-miterlimit:10;}
	.st10{fill:none;stroke:#304B9E;stroke-linecap:round;stroke-linejoin:round;stroke-miterlimit:10;}
	.st11{display:none;fill:none;stroke:#304B9E;stroke-linecap:round;stroke-linejoin:round;stroke-miterlimit:10;}
	.st12{fill:none;stroke:#2F499F;stroke-miterlimit:10;}
</style>
<rect class="st0" width="372" height="208"/>
<path class="st1" d="M-190.1,115.8c2,0,3.7,0,5,0.1h10.4c0.8,0,1.4,2.2,1.4,3.1c0,0.9-0.6,1.6-1.4,1.6h-9.7c-0.1,0-0.2,0-0.2,0
	c-2.7,0.5-4.6,2.1-4.6,4.9c0,2.1,1.1,3.2,2.8,4.2c0.1,0.1,0.2,0.1,0.3,0.1c0.3,0.1,1.3,0.4,2.8,0.8l1,0.3c1.2,0.3,2.4,0.7,3.6,1
	l0.3,0.1c4,1.1,8.9,2.5,9.7,2.7c0.1,0,0.2,0,0.3,0c0.2,0,0.3,0,0.5,0c0.5,0,1-0.1,1.4-0.2c0.2,0,0.3-0.1,0.4-0.2l15.3-10.6
	c0,0,0,0,0.1,0l2.7-2.1c0,0,0,0,0.1,0c0.1-0.1,0.2-0.1,0.3-0.2c0.2-0.1,0.3-0.1,0.4-0.2c0.1,0,0.2-0.1,0.3-0.1c0.2,0,0.3,0,0.4,0
	c0.2,0,0.3,0,0.5,0.1c0.1,0,0.1,0,0.2,0c1.6,0.1,2.8,1.6,2.8,3.3c0,0.9-0.3,1.7-0.9,2.4c0,0,0,0,0,0c-0.2,0.2-0.5,0.4-0.7,0.6
	c-0.1,0-0.1,0.1-0.2,0.1l-1.1,0.8l-23.9,18.4l-0.1,0c-0.5,0.2-0.8,0.2-1.2,0.2c-0.2,0-0.5,0-0.7-0.1l-0.1,0
	c-10.9-3-25.5-6.9-32.7-8.8l-0.5-0.2c0,0-0.1,0-0.1,0c-2.2-0.6-4-1-5.5-1.1c0-0.1,0-0.1,0-0.2l0-1.4v-9.8c4-0.4,6.8-2.7,9.5-4.8
	c0.6-0.5,1.2-1,1.9-1.5C-197,117.5-194.1,115.8-190.1,115.8 M-190.1,114.1c-4.6,0-7.7,1.8-10.3,3.8c-0.7,0.5-1.4,1.1-1.9,1.5l-0.1,0
	c-2.7,2.1-5.2,4.1-8.6,4.4l-1.5,0.2v1.5v9.8l0,1.4l0,0.1l0,0.1v1.4l1.5,0.2c1.3,0.1,3.1,0.5,5.2,1.1l0,0l0.5,0.2l0.1,0l0.1,0
	c7.3,1.9,21.9,5.9,32.7,8.8l0,0l0.1,0l0.1,0c0.4,0.1,0.7,0.1,1,0.1c0.6,0,1.2-0.1,1.8-0.3l0,0l0,0l0.1,0l0.2-0.1l0.2-0.1l23.9-18.4
	l1-0.8l0,0c0.4-0.2,0.7-0.5,1-0.8c0.1-0.1,0.1-0.1,0.2-0.2c0.9-0.9,1.3-2.2,1.3-3.4c0-2.6-1.9-4.7-4.3-5l0,0
	c-0.3-0.1-0.5-0.1-0.8-0.1c-0.2,0-0.4,0-0.6,0.1l-0.1,0l-0.1,0l-0.1,0c-0.1,0-0.2,0.1-0.4,0.1c-0.3,0.1-0.5,0.2-0.7,0.3l0,0l0,0
	c-0.1,0-0.1,0.1-0.2,0.1l-0.1,0l-0.2,0.2l-2.6,2l0,0l0,0L-167,133c-0.3,0.1-0.6,0.1-0.9,0.1c-0.1,0-0.3,0-0.4,0
	c-0.8-0.2-4-1.1-9.7-2.7l-0.3-0.1c-1.3-0.4-2.5-0.7-3.7-1l-1-0.3l-1.7-0.5c-0.5-0.2-0.9-0.3-1-0.3c-1.5-0.9-2-1.6-2-2.8
	c0-1.8,1.1-2.9,3.2-3.3l9.7,0c1.7,0,3-1.4,3-3.2c0-0.7-0.6-4.7-3-4.7H-185C-186.3,114.2-187.9,114.1-190.1,114.1L-190.1,114.1z"/>
<rect x="141.1" y="59.1" class="st2" width="89.8" height="89.8"/>
<g class="st3">
	<line class="st4" x1="154.7" y1="75.9" x2="165.1" y2="75.9"/>
	<line class="st4" x1="172.1" y1="75.9" x2="182.5" y2="75.9"/>
	<line class="st4" x1="189.5" y1="75.9" x2="199.9" y2="75.9"/>
	<line class="st4" x1="206.9" y1="75.9" x2="217.3" y2="75.9"/>
	<path class="st4" d="M224.3,75.9h1c2.6,0,4.7,2.1,4.7,4.7v57.7c0,2.6-2.1,4.7-4.7,4.7h-78.6c-2.6,0-4.7-2.1-4.7-4.7V80.6
		c0-2.6,2.1-4.7,4.7-4.7h1"/>
	<g class="st5">
		<rect x="147.7" y="65.1" class="st6" width="7" height="20.1"/>
		<rect x="165.1" y="65.1" class="st6" width="7" height="20.1"/>
		<rect x="182.5" y="65.1" class="st6" width="7" height="20.1"/>
		<rect x="199.9" y="65.1" class="st6" width="7" height="20.1"/>
		<rect x="217.3" y="65.1" class="st6" width="7" height="20.1"/>
	</g>
	<rect x="147.7" y="93.9" class="st4" width="13" height="13"/>
	<rect x="168.9" y="93.9" class="st4" width="13" height="13"/>
	<rect x="190.1" y="93.9" class="st4" width="13" height="13"/>
	<rect x="211.3" y="93.9" class="st4" width="13" height="13"/>
	<rect x="147.7" y="115.6" class="st4" width="13" height="13"/>
	<rect x="168.9" y="115.6" class="st4" width="13" height="13"/>
	<rect x="190.1" y="115.6" class="st7" width="13" height="13"/>
	<rect x="211.3" y="115.6" class="st7" width="13" height="13"/>
</g>
<g>
	<path class="st1" d="M-153.9,100.4c0.1,0.1,0.2,0.2,0.2,0.4c0,0.2,0,0.4,0,0.7c0,0.3-0.1,0.3-0.4,0.4c-0.2,0-0.5,0-0.7,0
		c-0.3,0-0.7,0-1,0c0,0,0,0,0,0c0,0-0.1,0-0.1,0c0,0,0,0.1,0,0.1c0.2,0.3,0.4,0.6,0.4,1c0,0.1,0.1,0.1,0.1,0.1c0,0,0,0,0,0
		c0.2,0,0.4,0,0.6,0c0.2,0,0.4,0,0.6,0c0.3,0,0.3,0.1,0.3,0.3c0,0.2,0,0.5,0,0.7c0,0.2-0.1,0.3-0.3,0.3c-0.2,0-0.4,0-0.6,0
		c-0.2,0-0.4,0-0.6,0c0,0,0,0,0,0c-0.1,0-0.1,0-0.1,0.1c-0.2,1.2-1,2-2.2,2.5c-0.4,0.1-0.8,0.2-1.2,0.3c0.2,0.2,0.4,0.4,0.6,0.6
		c1.1,1.2,2.2,2.5,3.2,3.8c0.1,0.1,0.1,0.2,0,0.3c-0.1,0.1-0.1,0.2-0.3,0.2c0,0,0,0,0,0c-0.3,0-0.5,0-0.8,0c-0.2,0-0.5,0-0.7,0
		c0,0,0,0,0,0c-0.1,0-0.2-0.1-0.3-0.2c-0.7-0.9-1.5-1.8-2.2-2.6c-0.6-0.7-1.2-1.3-1.8-2c-0.1-0.1-0.1-0.2-0.1-0.3c0-0.3,0-0.6,0-0.9
		c0-0.2,0.1-0.3,0.3-0.3c0.1,0,0.1,0,0.2,0c0.2,0,0.4,0,0.6,0c0.2,0,0.4,0,0.7,0c0.6-0.1,1.1-0.2,1.5-0.5c0.3-0.2,0.4-0.4,0.5-0.8
		c0-0.1,0-0.1-0.1-0.1c0,0,0,0,0,0c-0.6,0-1.2,0-1.9,0c-0.4,0-0.9,0-1.3,0c0,0-0.1,0-0.1,0c0,0-0.1,0-0.1,0c-0.2,0-0.3-0.1-0.3-0.3
		c0-0.2,0-0.5,0-0.7c0-0.3,0.1-0.3,0.3-0.3c0.5,0,1,0,1.6,0c0.5,0,1.1,0,1.6,0c0,0,0,0,0.1,0c0,0,0.1,0,0.1,0
		c-0.1-0.3-0.3-0.5-0.6-0.6c-0.4-0.3-0.9-0.3-1.4-0.3c-0.2,0-0.4,0-0.6,0c-0.2,0-0.4,0-0.6,0c0,0-0.1,0-0.1,0
		c-0.2,0-0.3-0.1-0.4-0.3c0-0.3,0-0.6,0-1c0-0.2,0.1-0.3,0.2-0.3C-158.6,100.4-156.3,100.4-153.9,100.4 M-153.9,99.3h-7.1
		c-0.2,0-0.3,0-0.5,0.1c-0.5,0.2-0.9,0.8-0.9,1.4c0,0.2,0,0.4,0,0.6l0,0.4c0,0.3,0.1,0.6,0.2,0.8c-0.1,0.2-0.2,0.5-0.2,0.8
		c0,0.2,0,0.5,0,0.7c0,0.4,0.1,0.8,0.4,1c-0.2,0.3-0.4,0.6-0.4,1l0,0.3c0,0.2,0,0.4,0,0.5c0,0.4,0.1,0.8,0.4,1.1
		c0.5,0.6,1.1,1.2,1.8,2c0.7,0.8,1.5,1.7,2.2,2.6c0.3,0.4,0.7,0.6,1.2,0.6c0,0,0,0,0,0c0.2,0,0.5,0,0.7,0c0.2,0,0.5,0,0.7,0l0.1,0
		c0.6,0,1-0.3,1.3-0.8c0.2-0.5,0.2-1.1-0.2-1.5l0-0.1c-0.8-1-1.7-2.1-2.6-3.1c1.1-0.5,1.8-1.3,2.2-2.3l0.4,0l0.1,0
		c0.9,0,1.4-0.6,1.4-1.4c0-0.2,0-0.5,0-0.7c0-0.4-0.1-0.7-0.3-0.9c0.2-0.2,0.3-0.6,0.3-0.9l0-0.2c0-0.1,0-0.3,0-0.4
		c0-0.6-0.3-1.1-0.7-1.4C-153.5,99.4-153.7,99.3-153.9,99.3L-153.9,99.3z"/>
</g>
<circle class="st8" cx="-157.5" cy="106.3" r="13"/>
<g class="st3">
	<polygon class="st9" points="230.9,81.5 217.1,81.5 203.4,81.5 203.4,62.6 230.9,62.6 	"/>
	<polygon class="st9" points="218.7,66.4 215.6,66.4 215.6,70.5 211.5,70.5 211.5,73.6 215.6,73.6 215.6,77.6 218.7,77.6 
		218.7,73.6 222.7,73.6 222.7,70.5 218.7,70.5 	"/>
	<rect x="212.9" y="59.3" class="st9" width="8.2" height="3.4"/>
</g>
<g>
	<path class="st1" d="M-54.1,41.1c0.1,0.1,0.1,0.1,0,0.3c-2.6,2.6-5.2,5.2-7.8,7.8c-0.1,0.1-0.2,0.1-0.3,0c-1.2-1.3-2.5-2.5-3.8-3.8
		c-0.1-0.1-0.1-0.1,0-0.3c0.6-0.6,1.1-1.1,1.7-1.7c0,0,0.1-0.1,0.2-0.1c0,0.1,0,0.1,0.1,0.1c0.6,0.6,1.2,1.2,1.8,1.9
		c0.1,0.1,0.2,0.1,0.3,0c2-2,3.9-3.9,5.9-5.9c0.1-0.1,0.2-0.1,0.3,0C-55.2,40-54.7,40.6-54.1,41.1z"/>
	<path class="st1" d="M-49.3,39.6c0-2,0-4,0-5.9c0-0.2,0-0.2-0.2-0.2c-1.3,0.1-2.7,0-4-0.2c-2.6-0.3-5.1-1.2-7.1-3
		c-0.1-0.1-0.2-0.1-0.3,0c-0.3,0.3-0.7,0.5-1,0.8c-1.9,1.3-4.1,1.9-6.3,2.2c-1.2,0.2-2.5,0.2-3.7,0.1c-0.2,0-0.2,0-0.2,0.2
		c0,3.8,0,7.5,0,11.3c0,0.7,0.1,1.5,0.3,2.2c0.4,1.6,1.2,3,2.1,4.3c1.7,2.3,3.8,4.1,6.2,5.6c0.8,0.5,1.7,1,2.7,1.3
		c0.1,0,0.2,0,0.3,0c0.4-0.1,0.8-0.3,1.1-0.5c2-1,3.7-2.3,5.3-3.8c1.4-1.4,2.7-2.9,3.6-4.7c0.7-1.3,1.1-2.7,1.1-4.1
		C-49.3,43.4-49.3,41.5-49.3,39.6L-49.3,39.6z M-51.7,45.1c0,1.2-0.4,2.4-1,3.5c-0.8,1.5-1.9,2.7-3.1,3.8c-1.4,1.3-3,2.5-4.7,3.4
		c-0.2,0.1-0.4,0.1-0.5,0c-2.2-1.2-4.1-2.7-5.8-4.5c-1-1.1-1.9-2.4-2.5-3.8c-0.3-0.8-0.5-1.7-0.5-2.6c0-1.4,0-2.8,0-4.2
		c0-1.6,0-3.1,0-4.7c0-0.2,0-0.2,0.2-0.2c2.6-0.1,5.1-0.6,7.5-1.8c0.4-0.2,0.8-0.4,1.2-0.7c0.1-0.1,0.2-0.1,0.3,0
		c1.6,1,3.4,1.7,5.2,2.1c1.2,0.2,2.3,0.4,3.5,0.4c0.2,0,0.2,0.1,0.2,0.2c0,2,0,4.1,0,6.1C-51.7,43.1-51.7,44.1-51.7,45.1z"/>
	<path class="st1" d="M-54.1,41.4c-2.6,2.6-5.2,5.2-7.8,7.8c-0.1,0.1-0.2,0.1-0.3,0c-1.2-1.3-2.5-2.5-3.8-3.8
		c-0.1-0.1-0.1-0.1,0-0.3c0.6-0.6,1.1-1.1,1.7-1.7c0,0,0.1-0.1,0.2-0.1c0,0.1,0,0.1,0.1,0.1c0.6,0.6,1.2,1.2,1.8,1.9
		c0.1,0.1,0.2,0.1,0.3,0c2-2,3.9-3.9,5.9-5.9c0.1-0.1,0.2-0.1,0.3,0c0.5,0.6,1.1,1.1,1.7,1.7C-54,41.2-54,41.3-54.1,41.4z"/>
	<path class="st1" d="M-54.1,41.4c-2.6,2.6-5.2,5.2-7.8,7.8c-0.1,0.1-0.2,0.1-0.3,0c-1.2-1.3-2.5-2.5-3.8-3.8
		c-0.1-0.1-0.1-0.1,0-0.3c0.6-0.6,1.1-1.1,1.7-1.7c0,0,0.1-0.1,0.2-0.1c0,0.1,0,0.1,0.1,0.1c0.6,0.6,1.2,1.2,1.8,1.9
		c0.1,0.1,0.2,0.1,0.3,0c2-2,3.9-3.9,5.9-5.9c0.1-0.1,0.2-0.1,0.3,0c0.5,0.6,1.1,1.1,1.7,1.7C-54,41.2-54,41.3-54.1,41.4z"/>
</g>
<path class="st10" d="M-52.1,86.8c0.3,0.1,0.3,0.4,0.3,0.7c0,0.4,0,0.8,0,1.2c0,0.5-0.2,0.6-0.6,0.6c-1.1,0-2.1,0-3.2,0
	c0,0-0.1,0-0.1,0c0,0.1,0,0.1,0,0.1c0.4,0.5,0.7,1.2,0.8,1.8c0,0.2,0.1,0.2,0.3,0.2c0.7,0,1.5,0,2.2,0c0.5,0,0.6,0.2,0.6,0.6
	c0,0.4,0,0.9,0,1.3c0,0.4-0.2,0.6-0.6,0.6c-0.7,0-1.5,0-2.2,0c-0.1,0-0.2,0-0.2,0.2c-0.4,2.2-1.8,3.7-3.9,4.5
	c-0.7,0.3-1.4,0.4-2.2,0.5c0.4,0.4,0.7,0.8,1.1,1.2c2,2.2,3.9,4.5,5.8,6.8c0.1,0.2,0.2,0.3,0.1,0.5c-0.1,0.2-0.3,0.3-0.5,0.3
	c-0.9,0-1.8,0-2.7,0c-0.3,0-0.5-0.1-0.6-0.3c-1.3-1.6-2.7-3.2-4-4.8c-1.1-1.2-2.1-2.4-3.2-3.6c-0.2-0.2-0.3-0.4-0.2-0.6
	c0-0.5,0-1.1,0-1.6c0-0.4,0.2-0.6,0.6-0.6c0.8,0,1.7,0,2.5,0c1-0.1,2-0.3,2.8-0.9c0.5-0.4,0.8-0.8,1-1.4c0.1-0.2,0-0.2-0.1-0.2
	c-1.9,0-3.8,0-5.7,0c-0.1,0-0.3,0-0.4,0c-0.4,0-0.6-0.2-0.6-0.6c0-0.4,0-0.9,0-1.3c0-0.5,0.2-0.6,0.6-0.6c1.9,0,3.9,0,5.8,0
	c0.1,0,0.1,0,0.2,0c-0.2-0.5-0.6-0.8-1-1.1c-0.8-0.5-1.7-0.6-2.6-0.6c-0.8,0-1.6,0-2.4,0c-0.4,0-0.6-0.2-0.6-0.6c0-0.6,0-1.2,0-1.8
	c0-0.3,0.1-0.5,0.3-0.6C-60.7,86.8-56.4,86.8-52.1,86.8z"/>
<circle class="st11" cx="186" cy="95.5" r="14.5"/>
<g class="st3">
	<path class="st9" d="M157.6,94.1c0-15.7,12.7-28.4,28.4-28.4s28.4,12.7,28.4,28.4s-12.7,28.4-28.4,28.4"/>
	<polygon class="st9" points="152.3,94.1 157.6,103.2 162.9,94.1 	"/>
</g>
<g>
	<path class="st10" d="M159.4,125.4c0,0,12.5-11,25.4-3.5c0.7,0.4,1.4,0.6,2.2,0.6h8.4c1.3,0,2.6,0.3,3.7,1c1.6,1,3.5,2.7,3.1,4.9
		c-0.3,1.5-1.6,2.5-3.2,2.5l-18.2,0"/>
	<path class="st10" d="M170.7,141.5l1.8-1.2c0.9-0.6,1.9-0.9,2.9-0.9h23.3c1,0,1.9-0.3,2.8-0.8l11.7-7.2c0.5-0.3,1-0.8,1.4-1.3
		l7.1-9.6c0.5-0.7,0.4-1.8-0.3-2.3c-0.9-0.6-2.4-1.2-5-0.6c-1.2,0.2-2.3,0.8-3.1,1.7l-3,3c-0.7,0.7-1.5,1.2-2.3,1.6l-5.7,2.7"/>
	<path class="st10" d="M150.1,127.8l5.3-3.9c0.9-0.6,2.1-0.4,2.7,0.4l13.1,18c0.6,0.9,0.4,2.1-0.4,2.7l-5.3,3.9"/>
</g>
<path class="st10" d="M190.7,87.6c0.2,0.1,0.2,0.3,0.2,0.5c0,0.3,0,0.6,0,0.9c0,0.3-0.1,0.5-0.5,0.5c-0.8,0-1.6,0-2.3,0
	c0,0-0.1,0-0.1,0c0,0.1,0,0.1,0,0.1c0.3,0.4,0.5,0.9,0.6,1.3c0,0.1,0.1,0.2,0.2,0.2c0.5,0,1.1,0,1.6,0c0.3,0,0.5,0.1,0.5,0.5
	c0,0.3,0,0.6,0,1c0,0.3-0.1,0.4-0.4,0.4c-0.5,0-1.1,0-1.6,0c-0.1,0-0.2,0-0.2,0.1c-0.3,1.7-1.3,2.7-2.9,3.3c-0.5,0.2-1,0.3-1.6,0.4
	c0.3,0.3,0.5,0.6,0.8,0.9c1.5,1.6,2.9,3.4,4.3,5.1c0.1,0.1,0.1,0.3,0.1,0.4c-0.1,0.2-0.2,0.2-0.4,0.2c-0.7,0-1.3,0-2,0
	c-0.2,0-0.3-0.1-0.5-0.2c-1-1.2-2-2.4-3-3.5c-0.8-0.9-1.6-1.8-2.4-2.6c-0.1-0.1-0.2-0.3-0.2-0.5c0-0.4,0-0.8,0-1.2
	c0-0.3,0.1-0.4,0.5-0.5c0.6,0,1.2,0,1.8,0c0.7-0.1,1.4-0.2,2-0.7c0.3-0.3,0.6-0.6,0.7-1c0-0.1,0-0.1-0.1-0.1c-1.4,0-2.8,0-4.2,0
	c-0.1,0-0.2,0-0.3,0c-0.3,0-0.4-0.1-0.4-0.4c0-0.3,0-0.6,0-0.9c0-0.3,0.1-0.5,0.5-0.5c1.4,0,2.9,0,4.3,0c0,0,0.1,0,0.2,0
	c-0.2-0.4-0.4-0.6-0.8-0.8c-0.6-0.3-1.3-0.4-1.9-0.5c-0.6,0-1.2,0-1.8,0c-0.3,0-0.5-0.1-0.5-0.5c0-0.4,0-0.9,0-1.3
	c0-0.2,0.1-0.4,0.3-0.4C184.4,87.6,187.6,87.6,190.7,87.6z"/>
<g class="st3">
	<path class="st9" d="M161.8,59.1c0,0-2.7,2.6-10.3,2.6c0,0,0,5.6,0,11.3s10.3,11.4,10.3,11.4s10.3-5.7,10.3-11.4s0-11.3,0-11.3
		C164.5,61.7,161.8,59.1,161.8,59.1z"/>
	<polyline class="st9" points="157.4,72.5 160.2,75.3 167.3,68.2 	"/>
</g>
<rect x="157.9" y="82.1" class="st12" width="56.1" height="26.6"/>
</svg>
