<?xml version="1.0" encoding="utf-8"?>
<!-- Generator: Adobe Illustrator 24.0.1, SVG Export Plug-In . SVG Version: 6.00 Build 0)  -->
<svg version="1.1" id="Layer_1" xmlns="http://www.w3.org/2000/svg" xmlns:xlink="http://www.w3.org/1999/xlink" x="0px" y="0px"
	 viewBox="0 0 372 208" style="enable-background:new 0 0 372 208;" xml:space="preserve">
<style type="text/css">
	.st0{fill:#FFFFFF;}
	.st1{fill:none;stroke:#304B9E;stroke-linecap:round;stroke-linejoin:round;stroke-miterlimit:10;}
</style>
<rect class="st0" width="372" height="208"/>
<g>
	<g>
		<path class="st1" d="M159.4,125.4c0,0,12.5-11,25.4-3.5c0.7,0.4,1.4,0.6,2.2,0.6h8.4c1.3,0,2.6,0.3,3.7,1c1.6,1,3.5,2.7,3.1,4.9
			c-0.3,1.5-1.6,2.5-3.2,2.5l-18.2,0"/>
		<path class="st1" d="M170.7,141.5l1.8-1.2c0.9-0.6,1.9-0.9,2.9-0.9h23.3c1,0,1.9-0.3,2.8-0.8l11.7-7.2c0.5-0.3,1-0.8,1.4-1.3
			l7.1-9.6c0.5-0.7,0.4-1.8-0.3-2.3c-0.9-0.6-2.4-1.2-5-0.6c-1.2,0.2-2.3,0.8-3.1,1.7l-3,3c-0.7,0.7-1.5,1.2-2.3,1.6l-5.7,2.7"/>
		<path class="st1" d="M150.1,127.8l5.3-3.9c0.9-0.6,2.1-0.4,2.7,0.4l13.1,18c0.6,0.9,0.4,2.1-0.4,2.7l-5.3,3.9"/>
	</g>
	<g>
		<path class="st1" d="M190.7,87.6c0.2,0.1,0.2,0.3,0.2,0.5c0,0.3,0,0.6,0,0.9c0,0.3-0.1,0.5-0.5,0.5c-0.8,0-1.6,0-2.3,0
			c0,0-0.1,0-0.1,0c0,0.1,0,0.1,0,0.1c0.3,0.4,0.5,0.9,0.6,1.3c0,0.1,0.1,0.2,0.2,0.2c0.5,0,1.1,0,1.6,0c0.3,0,0.5,0.1,0.5,0.5
			c0,0.3,0,0.6,0,1c0,0.3-0.1,0.4-0.4,0.4c-0.5,0-1.1,0-1.6,0c-0.1,0-0.2,0-0.2,0.1c-0.3,1.7-1.3,2.7-2.9,3.3
			c-0.5,0.2-1,0.3-1.6,0.4c0.3,0.3,0.5,0.6,0.8,0.9c1.5,1.6,2.9,3.4,4.3,5.1c0.1,0.1,0.1,0.3,0.1,0.4c-0.1,0.2-0.2,0.2-0.4,0.2
			c-0.7,0-1.3,0-2,0c-0.2,0-0.3-0.1-0.5-0.2c-1-1.2-2-2.4-3-3.5c-0.8-0.9-1.6-1.8-2.4-2.6c-0.1-0.1-0.2-0.3-0.2-0.5
			c0-0.4,0-0.8,0-1.2c0-0.3,0.1-0.4,0.5-0.5c0.6,0,1.2,0,1.8,0c0.7-0.1,1.4-0.2,2-0.7c0.3-0.3,0.6-0.6,0.7-1c0-0.1,0-0.1-0.1-0.1
			c-1.4,0-2.8,0-4.2,0c-0.1,0-0.2,0-0.3,0c-0.3,0-0.4-0.1-0.4-0.4c0-0.3,0-0.6,0-0.9c0-0.3,0.1-0.5,0.5-0.5c1.4,0,2.9,0,4.3,0
			c0,0,0.1,0,0.2,0c-0.2-0.4-0.4-0.6-0.8-0.8c-0.6-0.3-1.3-0.4-1.9-0.5c-0.6,0-1.2,0-1.8,0c-0.3,0-0.5-0.1-0.5-0.5
			c0-0.4,0-0.9,0-1.3c0-0.2,0.1-0.4,0.3-0.4C184.4,87.6,187.6,87.6,190.7,87.6z"/>
		<g>
			<path class="st1" d="M185.3,72.1h1.3h7.3c5-5.7,4.3-12.9,4.3-12.9h-11.6h-1.3h-11.6c0,0-0.7,7.2,4.3,12.9H185.3z"/>
			<path class="st1" d="M195.4,76.1h-8.7h-1.3h-8.7c-13.2,5.2-24.3,38.7-5,38.7c7.9,0,11.8,0,13.6,0c0.1,0,0.1,0,0.2,0
				c0.7,0,1.1,0,1.3,0c0,0,0.2,0,0.2,0c1.8,0,5.7,0,13.6,0C219.7,114.8,208.6,81.3,195.4,76.1z"/>
		</g>
	</g>
</g>
</svg>
