<?xml version="1.0" encoding="utf-8"?>
<!-- Generator: Adobe Illustrator 24.0.1, SVG Export Plug-In . SVG Version: 6.00 Build 0)  -->
<svg version="1.1" id="Layer_1" xmlns="http://www.w3.org/2000/svg" xmlns:xlink="http://www.w3.org/1999/xlink" x="0px" y="0px"
	 viewBox="0 0 372 208" style="enable-background:new 0 0 372 208;" xml:space="preserve">
<style type="text/css">
	.st0{fill:#FFFFFF;}
	.st1{fill:#2F499F;}
	.st2{display:none;fill:none;stroke:#2F499F;stroke-miterlimit:10;}
	.st3{display:none;}
	.st4{display:inline;fill:#2F499F;}
	.st5{display:none;fill:none;stroke:#2F499F;stroke-width:2;stroke-miterlimit:10;}
	.st6{display:inline;fill:none;stroke:#2F499F;stroke-miterlimit:10;}
	.st7{display:none;fill:none;stroke:#304B9E;stroke-linecap:round;stroke-linejoin:round;stroke-miterlimit:10;}
	.st8{display:inline;fill:none;stroke:#304B9E;stroke-linecap:round;stroke-linejoin:round;stroke-miterlimit:10;}
	.st9{display:inline;fill:none;stroke:#2F499F;stroke-linecap:round;stroke-linejoin:round;stroke-miterlimit:10;}
	.st10{display:inline;}
	.st11{fill:none;stroke:#2F499F;stroke-linecap:round;stroke-linejoin:round;stroke-miterlimit:10;}
	.st12{fill:none;stroke:#2F499F;stroke-linecap:round;stroke-linejoin:round;stroke-miterlimit:10.0002;}
	.st13{display:inline;fill:none;stroke:#2F499F;stroke-linecap:round;stroke-linejoin:round;stroke-miterlimit:10.0002;}
	.st14{display:inline;fill:none;stroke:#2F499F;stroke-linecap:round;stroke-linejoin:round;stroke-miterlimit:10.0001;}
	.st15{display:inline;fill:none;stroke:#2F499F;stroke-linecap:round;stroke-linejoin:round;stroke-miterlimit:10.0003;}
	.st16{fill:none;stroke:#2F499F;stroke-linecap:round;stroke-linejoin:round;stroke-miterlimit:10.0003;}
	.st17{fill:none;stroke:#2F499F;stroke-miterlimit:10;}
	.st18{fill:none;stroke:#2F499F;stroke-width:1;stroke-miterlimit:9.9999;}
	.st19{fill:#293652;}
	.st20{display:inline;fill:none;stroke:#2F499F;stroke-width:1;stroke-linecap:round;stroke-miterlimit:9.9999;}
</style>
<rect class="st0" width="372" height="208"/>
<path class="st1" d="M-190.1,115.8c2,0,3.7,0,5,0.1h10.4c0.8,0,1.4,2.2,1.4,3.1s-0.6,1.6-1.4,1.6h-9.7c-0.1,0-0.2,0-0.2,0
	c-2.7,0.5-4.6,2.1-4.6,4.9c0,2.1,1.1,3.2,2.8,4.2c0.1,0.1,0.2,0.1,0.3,0.1c0.3,0.1,1.3,0.4,2.8,0.8l1,0.3c1.2,0.3,2.4,0.7,3.6,1
	l0.3,0.1c4,1.1,8.9,2.5,9.7,2.7c0.1,0,0.2,0,0.3,0c0.2,0,0.3,0,0.5,0c0.5,0,1-0.1,1.4-0.2c0.2,0,0.3-0.1,0.4-0.2l15.3-10.6
	c0,0,0,0,0.1,0l2.7-2.1c0,0,0,0,0.1,0c0.1-0.1,0.2-0.1,0.3-0.2c0.2-0.1,0.3-0.1,0.4-0.2c0.1,0,0.2-0.1,0.3-0.1c0.2,0,0.3,0,0.4,0
	c0.2,0,0.3,0,0.5,0.1c0.1,0,0.1,0,0.2,0c1.6,0.1,2.8,1.6,2.8,3.3c0,0.9-0.3,1.7-0.9,2.4l0,0c-0.2,0.2-0.5,0.4-0.7,0.6
	c-0.1,0-0.1,0.1-0.2,0.1l-1.1,0.8l-23.9,18.4h-0.1c-0.5,0.2-0.8,0.2-1.2,0.2c-0.2,0-0.5,0-0.7-0.1h-0.1c-10.9-3-25.5-6.9-32.7-8.8
	l-0.5-0.2h-0.1c-2.2-0.6-4-1-5.5-1.1c0-0.1,0-0.1,0-0.2v-1.4v-9.8c4-0.4,6.8-2.7,9.5-4.8c0.6-0.5,1.2-1,1.9-1.5
	C-197,117.5-194.1,115.8-190.1,115.8 M-190.1,114.1c-4.6,0-7.7,1.8-10.3,3.8c-0.7,0.5-1.4,1.1-1.9,1.5h-0.1
	c-2.7,2.1-5.2,4.1-8.6,4.4l-1.5,0.2v1.5v9.8v1.4v0.1v0.1v1.4l1.5,0.2c1.3,0.1,3.1,0.5,5.2,1.1l0,0l0.5,0.2h0.1h0.1
	c7.3,1.9,21.9,5.9,32.7,8.8l0,0h0.1h0.1c0.4,0.1,0.7,0.1,1,0.1c0.6,0,1.2-0.1,1.8-0.3l0,0l0,0h0.1l0.2-0.1l0.2-0.1l23.9-18.4l1-0.8
	l0,0c0.4-0.2,0.7-0.5,1-0.8c0.1-0.1,0.1-0.1,0.2-0.2c0.9-0.9,1.3-2.2,1.3-3.4c0-2.6-1.9-4.7-4.3-5l0,0c-0.3-0.1-0.5-0.1-0.8-0.1
	c-0.2,0-0.4,0-0.6,0.1h-0.1h-0.1h-0.1c-0.1,0-0.2,0.1-0.4,0.1c-0.3,0.1-0.5,0.2-0.7,0.3l0,0l0,0c-0.1,0-0.1,0.1-0.2,0.1h-0.1
	l-0.2,0.2l-2.6,2l0,0l0,0L-167,133c-0.3,0.1-0.6,0.1-0.9,0.1c-0.1,0-0.3,0-0.4,0c-0.8-0.2-4-1.1-9.7-2.7l-0.3-0.1
	c-1.3-0.4-2.5-0.7-3.7-1l-1-0.3l-1.7-0.5c-0.5-0.2-0.9-0.3-1-0.3c-1.5-0.9-2-1.6-2-2.8c0-1.8,1.1-2.9,3.2-3.3h9.7c1.7,0,3-1.4,3-3.2
	c0-0.7-0.6-4.7-3-4.7H-185C-186.3,114.2-187.9,114.1-190.1,114.1L-190.1,114.1z"/>
<rect x="141.1" y="59.1" class="st2" width="89.8" height="89.8"/>
<g class="st3">
	<path class="st4" d="M-153.9,100.4c0.1,0.1,0.2,0.2,0.2,0.4c0,0.2,0,0.4,0,0.7c0,0.3-0.1,0.3-0.4,0.4c-0.2,0-0.5,0-0.7,0
		c-0.3,0-0.7,0-1,0l0,0h-0.1v0.1c0.2,0.3,0.4,0.6,0.4,1c0,0.1,0.1,0.1,0.1,0.1l0,0c0.2,0,0.4,0,0.6,0c0.2,0,0.4,0,0.6,0
		c0.3,0,0.3,0.1,0.3,0.3c0,0.2,0,0.5,0,0.7s-0.1,0.3-0.3,0.3s-0.4,0-0.6,0c-0.2,0-0.4,0-0.6,0l0,0c-0.1,0-0.1,0-0.1,0.1
		c-0.2,1.2-1,2-2.2,2.5c-0.4,0.1-0.8,0.2-1.2,0.3c0.2,0.2,0.4,0.4,0.6,0.6c1.1,1.2,2.2,2.5,3.2,3.8c0.1,0.1,0.1,0.2,0,0.3
		c-0.1,0.1-0.1,0.2-0.3,0.2l0,0c-0.3,0-0.5,0-0.8,0c-0.2,0-0.5,0-0.7,0l0,0c-0.1,0-0.2-0.1-0.3-0.2c-0.7-0.9-1.5-1.8-2.2-2.6
		c-0.6-0.7-1.2-1.3-1.8-2c-0.1-0.1-0.1-0.2-0.1-0.3c0-0.3,0-0.6,0-0.9c0-0.2,0.1-0.3,0.3-0.3c0.1,0,0.1,0,0.2,0c0.2,0,0.4,0,0.6,0
		c0.2,0,0.4,0,0.7,0c0.6-0.1,1.1-0.2,1.5-0.5c0.3-0.2,0.4-0.4,0.5-0.8c0-0.1,0-0.1-0.1-0.1l0,0c-0.6,0-1.2,0-1.9,0
		c-0.4,0-0.9,0-1.3,0h-0.1h-0.1c-0.2,0-0.3-0.1-0.3-0.3c0-0.2,0-0.5,0-0.7c0-0.3,0.1-0.3,0.3-0.3c0.5,0,1,0,1.6,0c0.5,0,1.1,0,1.6,0
		c0,0,0,0,0.1,0h0.1c-0.1-0.3-0.3-0.5-0.6-0.6c-0.4-0.3-0.9-0.3-1.4-0.3c-0.2,0-0.4,0-0.6,0c-0.2,0-0.4,0-0.6,0h-0.1
		c-0.2,0-0.3-0.1-0.4-0.3c0-0.3,0-0.6,0-1c0-0.2,0.1-0.3,0.2-0.3C-158.6,100.4-156.3,100.4-153.9,100.4 M-153.9,99.3h-7.1
		c-0.2,0-0.3,0-0.5,0.1c-0.5,0.2-0.9,0.8-0.9,1.4c0,0.2,0,0.4,0,0.6v0.4c0,0.3,0.1,0.6,0.2,0.8c-0.1,0.2-0.2,0.5-0.2,0.8
		c0,0.2,0,0.5,0,0.7c0,0.4,0.1,0.8,0.4,1c-0.2,0.3-0.4,0.6-0.4,1v0.3c0,0.2,0,0.4,0,0.5c0,0.4,0.1,0.8,0.4,1.1
		c0.5,0.6,1.1,1.2,1.8,2s1.5,1.7,2.2,2.6c0.3,0.4,0.7,0.6,1.2,0.6l0,0c0.2,0,0.5,0,0.7,0s0.5,0,0.7,0h0.1c0.6,0,1-0.3,1.3-0.8
		c0.2-0.5,0.2-1.1-0.2-1.5v-0.1c-0.8-1-1.7-2.1-2.6-3.1c1.1-0.5,1.8-1.3,2.2-2.3h0.4h0.1c0.9,0,1.4-0.6,1.4-1.4c0-0.2,0-0.5,0-0.7
		c0-0.4-0.1-0.7-0.3-0.9c0.2-0.2,0.3-0.6,0.3-0.9v-0.2c0-0.1,0-0.3,0-0.4c0-0.6-0.3-1.1-0.7-1.4C-153.5,99.4-153.7,99.3-153.9,99.3
		L-153.9,99.3z"/>
</g>
<circle class="st5" cx="-157.5" cy="106.3" r="13"/>
<g class="st3">
	<polygon class="st6" points="230.9,81.5 217.1,81.5 203.4,81.5 203.4,62.6 230.9,62.6 	"/>
	<polygon class="st6" points="218.7,66.4 215.6,66.4 215.6,70.5 211.5,70.5 211.5,73.6 215.6,73.6 215.6,77.6 218.7,77.6 
		218.7,73.6 222.7,73.6 222.7,70.5 218.7,70.5 	"/>
	<rect x="212.9" y="59.3" class="st6" width="8.2" height="3.4"/>
</g>
<g class="st3">
	<path class="st4" d="M-54.1,41.1c0.1,0.1,0.1,0.1,0,0.3c-2.6,2.6-5.2,5.2-7.8,7.8c-0.1,0.1-0.2,0.1-0.3,0c-1.2-1.3-2.5-2.5-3.8-3.8
		c-0.1-0.1-0.1-0.1,0-0.3c0.6-0.6,1.1-1.1,1.7-1.7c0,0,0.1-0.1,0.2-0.1c0,0.1,0,0.1,0.1,0.1c0.6,0.6,1.2,1.2,1.8,1.9
		c0.1,0.1,0.2,0.1,0.3,0c2-2,3.9-3.9,5.9-5.9c0.1-0.1,0.2-0.1,0.3,0C-55.2,40-54.7,40.6-54.1,41.1z"/>
	<path class="st4" d="M-49.3,39.6c0-2,0-4,0-5.9c0-0.2,0-0.2-0.2-0.2c-1.3,0.1-2.7,0-4-0.2c-2.6-0.3-5.1-1.2-7.1-3
		c-0.1-0.1-0.2-0.1-0.3,0c-0.3,0.3-0.7,0.5-1,0.8c-1.9,1.3-4.1,1.9-6.3,2.2c-1.2,0.2-2.5,0.2-3.7,0.1c-0.2,0-0.2,0-0.2,0.2
		c0,3.8,0,7.5,0,11.3c0,0.7,0.1,1.5,0.3,2.2c0.4,1.6,1.2,3,2.1,4.3c1.7,2.3,3.8,4.1,6.2,5.6c0.8,0.5,1.7,1,2.7,1.3
		c0.1,0,0.2,0,0.3,0c0.4-0.1,0.8-0.3,1.1-0.5c2-1,3.7-2.3,5.3-3.8c1.4-1.4,2.7-2.9,3.6-4.7c0.7-1.3,1.1-2.7,1.1-4.1
		C-49.3,43.4-49.3,41.5-49.3,39.6L-49.3,39.6z M-51.7,45.1c0,1.2-0.4,2.4-1,3.5c-0.8,1.5-1.9,2.7-3.1,3.8c-1.4,1.3-3,2.5-4.7,3.4
		c-0.2,0.1-0.4,0.1-0.5,0c-2.2-1.2-4.1-2.7-5.8-4.5c-1-1.1-1.9-2.4-2.5-3.8c-0.3-0.8-0.5-1.7-0.5-2.6c0-1.4,0-2.8,0-4.2
		c0-1.6,0-3.1,0-4.7c0-0.2,0-0.2,0.2-0.2c2.6-0.1,5.1-0.6,7.5-1.8c0.4-0.2,0.8-0.4,1.2-0.7c0.1-0.1,0.2-0.1,0.3,0
		c1.6,1,3.4,1.7,5.2,2.1c1.2,0.2,2.3,0.4,3.5,0.4c0.2,0,0.2,0.1,0.2,0.2c0,2,0,4.1,0,6.1C-51.7,43.1-51.7,44.1-51.7,45.1z"/>
	<path class="st4" d="M-54.1,41.4c-2.6,2.6-5.2,5.2-7.8,7.8c-0.1,0.1-0.2,0.1-0.3,0c-1.2-1.3-2.5-2.5-3.8-3.8
		c-0.1-0.1-0.1-0.1,0-0.3c0.6-0.6,1.1-1.1,1.7-1.7c0,0,0.1-0.1,0.2-0.1c0,0.1,0,0.1,0.1,0.1c0.6,0.6,1.2,1.2,1.8,1.9
		c0.1,0.1,0.2,0.1,0.3,0c2-2,3.9-3.9,5.9-5.9c0.1-0.1,0.2-0.1,0.3,0c0.5,0.6,1.1,1.1,1.7,1.7C-54,41.2-54,41.3-54.1,41.4z"/>
	<path class="st4" d="M-54.1,41.4c-2.6,2.6-5.2,5.2-7.8,7.8c-0.1,0.1-0.2,0.1-0.3,0c-1.2-1.3-2.5-2.5-3.8-3.8
		c-0.1-0.1-0.1-0.1,0-0.3c0.6-0.6,1.1-1.1,1.7-1.7c0,0,0.1-0.1,0.2-0.1c0,0.1,0,0.1,0.1,0.1c0.6,0.6,1.2,1.2,1.8,1.9
		c0.1,0.1,0.2,0.1,0.3,0c2-2,3.9-3.9,5.9-5.9c0.1-0.1,0.2-0.1,0.3,0c0.5,0.6,1.1,1.1,1.7,1.7C-54,41.2-54,41.3-54.1,41.4z"/>
</g>
<path class="st7" d="M-52.1,86.8c0.3,0.1,0.3,0.4,0.3,0.7c0,0.4,0,0.8,0,1.2c0,0.5-0.2,0.6-0.6,0.6c-1.1,0-2.1,0-3.2,0h-0.1
	c0,0.1,0,0.1,0,0.1c0.4,0.5,0.7,1.2,0.8,1.8c0,0.2,0.1,0.2,0.3,0.2c0.7,0,1.5,0,2.2,0c0.5,0,0.6,0.2,0.6,0.6s0,0.9,0,1.3
	s-0.2,0.6-0.6,0.6c-0.7,0-1.5,0-2.2,0c-0.1,0-0.2,0-0.2,0.2c-0.4,2.2-1.8,3.7-3.9,4.5c-0.7,0.3-1.4,0.4-2.2,0.5
	c0.4,0.4,0.7,0.8,1.1,1.2c2,2.2,3.9,4.5,5.8,6.8c0.1,0.2,0.2,0.3,0.1,0.5c-0.1,0.2-0.3,0.3-0.5,0.3c-0.9,0-1.8,0-2.7,0
	c-0.3,0-0.5-0.1-0.6-0.3c-1.3-1.6-2.7-3.2-4-4.8c-1.1-1.2-2.1-2.4-3.2-3.6c-0.2-0.2-0.3-0.4-0.2-0.6c0-0.5,0-1.1,0-1.6
	c0-0.4,0.2-0.6,0.6-0.6c0.8,0,1.7,0,2.5,0c1-0.1,2-0.3,2.8-0.9c0.5-0.4,0.8-0.8,1-1.4c0.1-0.2,0-0.2-0.1-0.2c-1.9,0-3.8,0-5.7,0
	c-0.1,0-0.3,0-0.4,0c-0.4,0-0.6-0.2-0.6-0.6s0-0.9,0-1.3c0-0.5,0.2-0.6,0.6-0.6c1.9,0,3.9,0,5.8,0c0.1,0,0.1,0,0.2,0
	c-0.2-0.5-0.6-0.8-1-1.1c-0.8-0.5-1.7-0.6-2.6-0.6c-0.8,0-1.6,0-2.4,0c-0.4,0-0.6-0.2-0.6-0.6c0-0.6,0-1.2,0-1.8
	c0-0.3,0.1-0.5,0.3-0.6C-60.7,86.8-56.4,86.8-52.1,86.8z"/>
<circle class="st7" cx="186" cy="95.5" r="14.5"/>
<g class="st3">
	<path class="st6" d="M157.6,94.1c0-15.7,12.7-28.4,28.4-28.4s28.4,12.7,28.4,28.4s-12.7,28.4-28.4,28.4"/>
	<polygon class="st6" points="152.3,94.1 157.6,103.2 162.9,94.1 	"/>
</g>
<g class="st3">
	<path class="st8" d="M159.4,125.4c0,0,12.5-11,25.4-3.5c0.7,0.4,1.4,0.6,2.2,0.6h8.4c1.3,0,2.6,0.3,3.7,1c1.6,1,3.5,2.7,3.1,4.9
		c-0.3,1.5-1.6,2.5-3.2,2.5h-18.2"/>
	<path class="st8" d="M170.7,141.5l1.8-1.2c0.9-0.6,1.9-0.9,2.9-0.9h23.3c1,0,1.9-0.3,2.8-0.8l11.7-7.2c0.5-0.3,1-0.8,1.4-1.3
		l7.1-9.6c0.5-0.7,0.4-1.8-0.3-2.3c-0.9-0.6-2.4-1.2-5-0.6c-1.2,0.2-2.3,0.8-3.1,1.7l-3,3c-0.7,0.7-1.5,1.2-2.3,1.6l-5.7,2.7"/>
	<path class="st8" d="M150.1,127.8l5.3-3.9c0.9-0.6,2.1-0.4,2.7,0.4l13.1,18c0.6,0.9,0.4,2.1-0.4,2.7l-5.3,3.9"/>
</g>
<path class="st7" d="M190.7,87.6c0.2,0.1,0.2,0.3,0.2,0.5c0,0.3,0,0.6,0,0.9s-0.1,0.5-0.5,0.5c-0.8,0-1.6,0-2.3,0H188
	c0,0.1,0,0.1,0,0.1c0.3,0.4,0.5,0.9,0.6,1.3c0,0.1,0.1,0.2,0.2,0.2c0.5,0,1.1,0,1.6,0c0.3,0,0.5,0.1,0.5,0.5c0,0.3,0,0.6,0,1
	c0,0.3-0.1,0.4-0.4,0.4c-0.5,0-1.1,0-1.6,0c-0.1,0-0.2,0-0.2,0.1c-0.3,1.7-1.3,2.7-2.9,3.3c-0.5,0.2-1,0.3-1.6,0.4
	c0.3,0.3,0.5,0.6,0.8,0.9c1.5,1.6,2.9,3.4,4.3,5.1c0.1,0.1,0.1,0.3,0.1,0.4c-0.1,0.2-0.2,0.2-0.4,0.2c-0.7,0-1.3,0-2,0
	c-0.2,0-0.3-0.1-0.5-0.2c-1-1.2-2-2.4-3-3.5c-0.8-0.9-1.6-1.8-2.4-2.6c-0.1-0.1-0.2-0.3-0.2-0.5c0-0.4,0-0.8,0-1.2
	c0-0.3,0.1-0.4,0.5-0.5c0.6,0,1.2,0,1.8,0c0.7-0.1,1.4-0.2,2-0.7c0.3-0.3,0.6-0.6,0.7-1c0-0.1,0-0.1-0.1-0.1c-1.4,0-2.8,0-4.2,0
	c-0.1,0-0.2,0-0.3,0c-0.3,0-0.4-0.1-0.4-0.4s0-0.6,0-0.9s0.1-0.5,0.5-0.5c1.4,0,2.9,0,4.3,0c0,0,0.1,0,0.2,0
	c-0.2-0.4-0.4-0.6-0.8-0.8c-0.6-0.3-1.3-0.4-1.9-0.5c-0.6,0-1.2,0-1.8,0c-0.3,0-0.5-0.1-0.5-0.5s0-0.9,0-1.3c0-0.2,0.1-0.4,0.3-0.4
	C184.4,87.6,187.6,87.6,190.7,87.6z"/>
<path class="st2" d="M186,59.1c0,0-9.6,9.2-36.6,9.2c0,0,0,19.9,0,40.1s36.6,40.5,36.6,40.5s36.6-20.2,36.6-40.5s0-40.1,0-40.1
	C195.9,68.3,186,59.1,186,59.1z"/>
<rect x="157.9" y="82.1" class="st2" width="56.1" height="26.6"/>
<g class="st3">
	<line class="st9" x1="151.6" y1="75" x2="159.5" y2="75"/>
	<line class="st9" x1="164.7" y1="75" x2="172.6" y2="75"/>
	<line class="st9" x1="177.9" y1="75" x2="185.8" y2="75"/>
	<line class="st9" x1="191" y1="75" x2="198.9" y2="75"/>
	<path class="st9" d="M204.2,75h0.8c1.9,0,3.5,1.6,3.5,3.5v43.6c0,1.9-1.6,3.5-3.5,3.5h-59.4c-1.9,0-3.5-1.6-3.5-3.5V78.6
		c0-1.9,1.6-3.5,3.5-3.5h0.8"/>
	<g class="st10">
		<rect x="146.3" y="66.9" class="st11" width="5.3" height="15.2"/>
		<rect x="159.5" y="66.9" class="st11" width="5.3" height="15.2"/>
		<rect x="172.6" y="66.9" class="st11" width="5.3" height="15.2"/>
		<rect x="185.8" y="66.9" class="st11" width="5.3" height="15.2"/>
		<rect x="198.9" y="66.9" class="st11" width="5.3" height="15.2"/>
	</g>
	<rect x="146.3" y="88.6" class="st9" width="9.9" height="9.9"/>
	<rect x="162.3" y="88.6" class="st9" width="9.9" height="9.9"/>
	<rect x="178.3" y="88.6" class="st9" width="9.9" height="9.9"/>
	<rect x="194.3" y="88.6" class="st9" width="9.9" height="9.9"/>
	<rect x="146.3" y="105" class="st9" width="9.9" height="9.9"/>
	<rect x="162.3" y="105" class="st9" width="9.9" height="9.9"/>
	<rect x="178.3" y="105" class="st9" width="9.9" height="9.9"/>
	<g class="st10">
		<ellipse class="st12" cx="211.5" cy="122.6" rx="18.5" ry="18.5"/>
		<circle class="st11" cx="211.5" cy="122.6" r="15.3"/>
		<line class="st11" x1="211.5" y1="112.2" x2="211.5" y2="121.1"/>
		<line class="st11" x1="211.5" y1="107.3" x2="211.5" y2="110.3"/>
		<line class="st11" x1="196.2" y1="122.6" x2="199.3" y2="122.6"/>
		<line class="st11" x1="211.5" y1="137.9" x2="211.5" y2="134.8"/>
		<line class="st11" x1="226.8" y1="122.6" x2="223.8" y2="122.6"/>
		<line class="st11" x1="201.2" y1="112.3" x2="202.3" y2="113.4"/>
		<line class="st11" x1="201.2" y1="132.9" x2="202.3" y2="131.8"/>
		<line class="st11" x1="221.8" y1="132.9" x2="220.7" y2="131.8"/>
		<line class="st11" x1="221.8" y1="112.3" x2="220.7" y2="113.4"/>
		<line class="st11" x1="218.3" y1="129.2" x2="212.6" y2="123.6"/>
		<circle class="st11" cx="211.5" cy="122.6" r="1.5"/>
	</g>
</g>
<g class="st3">
	<g class="st10">
		<path class="st11" d="M197.8,88.2c0,16.1-11.5,29.1-21.2,29.1c-8.3,0-21.2-13-21.2-29.1s9.5-24.1,21.2-24.1S197.8,72.1,197.8,88.2
			z"/>
		<path class="st11" d="M188.8,116c-5.7,7.6-11.7,6.5-11.7,6.5s-7,1.1-12.7-6.5c-13.6,6.6-23.3,21.5-23.3,21.5s15.9,6.4,35.4,6.4
			c19.6,0,35.4-6.4,35.4-6.4S202.3,122.5,188.8,116z"/>
	</g>
	<g class="st10">
		<path class="st11" d="M225.4,93.2c0,6.2-4.4,11.2-8.2,11.2c-3.2,0-8.2-5-8.2-11.2s3.7-9.3,8.2-9.3S225.4,87,225.4,93.2z"/>
		<path class="st11" d="M221.9,103.9c-2.2,2.9-4.5,2.5-4.5,2.5s-2.7,0.4-4.9-2.5c-5.2,2.5-9,8.3-9,8.3s6.1,2.4,13.6,2.4
			s13.6-2.4,13.6-2.4S227.2,106.4,221.9,103.9z"/>
	</g>
</g>
<polyline class="st2" points="191.4,115.6 198.1,122.5 215.2,105.3 "/>
<g class="st3">
	<polygon class="st9" points="188.3,82.5 188.3,59.1 212.3,82.5 	"/>
	<path class="st9" d="M212.3,92.7V82.5l-23.9-23.4h-41.2c-1.2,0-2.2,1-2.2,2.2v85.4c0,1.2,1,2.2,2.2,2.2H210c1.2,0,2.2-1,2.2-2.2
		v-10"/>
	<g class="st10">
		<line class="st11" x1="189.1" y1="133.7" x2="154.5" y2="133.7"/>
		<line class="st11" x1="181" y1="123.8" x2="154.5" y2="123.8"/>
		<line class="st11" x1="179.6" y1="113.9" x2="154.5" y2="113.9"/>
		<line class="st11" x1="182.1" y1="104" x2="154.5" y2="104"/>
		<line class="st11" x1="191.5" y1="94.1" x2="154.5" y2="94.1"/>
		<line class="st11" x1="182.7" y1="84.2" x2="154.5" y2="84.2"/>
		<line class="st11" x1="181.6" y1="74.3" x2="154.5" y2="74.3"/>
	</g>
	<ellipse class="st13" cx="203.3" cy="114.7" rx="23.8" ry="23.8"/>
	<polygon class="st9" points="203.3,99.4 207.3,108.6 217.2,109.5 209.7,116.1 211.9,125.8 203.3,120.7 194.7,125.8 196.9,116.1 
		189.4,109.5 199.4,108.6 	"/>
</g>
<g class="st3">
	<circle class="st9" cx="170.6" cy="80.7" r="5.5"/>
	<path class="st9" d="M158.4,99c0-4.8,2.8-8.9,6.8-10.9c1.6,0.9,3.4,1.4,5.4,1.4c1.9,0,3.8-0.5,5.4-1.4c4,2,6.8,6.1,6.8,10.9"/>
	<ellipse class="st14" cx="170.6" cy="114.6" rx="5.5" ry="5.5"/>
	<path class="st9" d="M158.4,132.8c0-4.8,2.8-8.9,6.8-10.9c1.6,0.9,3.4,1.4,5.4,1.4c1.9,0,3.8-0.5,5.4-1.4c4,2,6.8,6.1,6.8,10.9"/>
	<circle class="st9" cx="201.4" cy="80.7" r="5.5"/>
	<path class="st9" d="M189.2,99c0-4.8,2.8-8.9,6.8-10.9c1.6,0.9,3.4,1.4,5.4,1.4s3.8-0.5,5.4-1.4c4,2,6.8,6.1,6.8,10.9"/>
	<ellipse class="st13" cx="201.4" cy="114.6" rx="5.5" ry="5.5"/>
	<path class="st9" d="M189.2,132.8c0-4.8,2.8-8.9,6.8-10.9c1.6,0.9,3.4,1.4,5.4,1.4s3.8-0.5,5.4-1.4c4,2,6.8,6.1,6.8,10.9"/>
	<g class="st10">
		<polyline class="st11" points="213.6,132.8 230.9,132.8 224.3,99 213.6,99 189.2,99 182.8,99 158.4,99 147.4,99 141.1,132.8 
			158.4,132.8 		"/>
		<line class="st11" x1="189.2" y1="132.8" x2="182.8" y2="132.8"/>
	</g>
</g>
<g class="st3">
	<path class="st9" d="M160.4,122.7c0-3.6-2.9-6.5-6.5-6.5s-6.5,2.9-6.5,6.5s2.9,6.5,6.5,6.5C157.4,129.2,160.4,126.3,160.4,122.7z"
		/>
	<path class="st9" d="M166.6,140.5c0,1.2-0.2,2.3-0.5,3.4h-24.7c-0.3-1.1-0.5-2.2-0.5-3.4c0-4.6,2.4-8.6,6-10.8
		c1.7,1.9,4.1,3.1,6.8,3.1s5.1-1.2,6.8-3.1C164.2,131.9,166.6,135.9,166.6,140.5z"/>
	<path class="st9" d="M192.5,70.7c0-3.6-2.9-6.5-6.5-6.5s-6.5,2.9-6.5,6.5s2.9,6.5,6.5,6.5S192.5,74.3,192.5,70.7z"/>
	<path class="st9" d="M198.8,88.4c0,1.2-0.2,2.3-0.5,3.4h-24.7c-0.3-1.1-0.5-2.2-0.5-3.4c0-4.6,2.4-8.6,6-10.8
		c1.7,1.9,4.1,3.1,6.8,3.1s5.1-1.2,6.8-3.1C196.4,79.9,198.8,83.9,198.8,88.4z"/>
	<path class="st9" d="M192.4,122.7c0-3.6-2.9-6.5-6.5-6.5s-6.5,2.9-6.5,6.5s2.9,6.5,6.5,6.5S192.4,126.3,192.4,122.7z"/>
	<path class="st9" d="M198.7,140.5c0,1.2-0.2,2.3-0.5,3.4h-24.7c-0.3-1.1-0.5-2.2-0.5-3.4c0-4.6,2.4-8.6,6-10.8
		c1.7,1.9,4.1,3.1,6.8,3.1s5.1-1.2,6.8-3.1C196.3,131.9,198.7,135.9,198.7,140.5z"/>
	<path class="st9" d="M224.7,122.7c0-3.6-2.9-6.5-6.5-6.5s-6.5,2.9-6.5,6.5s2.9,6.5,6.5,6.5C221.7,129.2,224.7,126.3,224.7,122.7z"
		/>
	<path class="st9" d="M230.9,140.5c0,1.2-0.2,2.3-0.5,3.4h-24.7c-0.3-1.1-0.5-2.2-0.5-3.4c0-4.6,2.4-8.6,6-10.8
		c1.7,1.9,4.1,3.1,6.8,3.1s5.1-1.2,6.8-3.1C228.5,131.9,230.9,135.9,230.9,140.5z"/>
	<polyline class="st9" points="218.2,111.2 218.2,102.4 185.9,102.4 153.8,102.4 153.8,111.2 	"/>
	<polyline class="st9" points="185.9,111.2 185.9,102.4 185.9,95.2 	"/>
</g>
<g class="st3">
	<ellipse class="st14" cx="217.6" cy="84.7" rx="5.7" ry="5.7"/>
	<path class="st9" d="M205.2,103.4c0-4.9,2.8-9.1,7-11.2c1.6,0.9,3.5,1.4,5.5,1.4s3.8-0.5,5.5-1.4c4.1,2,6.9,6.3,6.9,11.2"/>
	<ellipse class="st13" cx="153.7" cy="125.5" rx="5.7" ry="5.7"/>
	<path class="st9" d="M141.3,144.2c0-4.9,2.8-9.1,7-11.2c1.6,0.9,3.5,1.4,5.5,1.4s3.8-0.5,5.5-1.4c4.1,2,6.9,6.3,6.9,11.2"/>
	<ellipse class="st15" cx="186.8" cy="125.5" rx="5.7" ry="5.7"/>
	<path class="st9" d="M174.4,144.2c0-4.9,2.8-9.1,7-11.2c1.6,0.9,3.5,1.4,5.5,1.4s3.8-0.5,5.5-1.4c4.1,2,6.9,6.3,6.9,11.2"/>
	<ellipse class="st15" cx="218.3" cy="125.5" rx="5.7" ry="5.7"/>
	<path class="st9" d="M205.9,144.2c0-4.9,2.8-9.1,7-11.2c1.6,0.9,3.5,1.4,5.5,1.4s3.8-0.5,5.5-1.4c4.1,2,6.9,6.3,6.9,11.2"/>
	<path class="st9" d="M147.3,68.1h49.3v29.3c0,3.2-2.6,5.8-5.8,5.8h-37.6c-3.2,0-5.8-2.6-5.8-5.8V68.1H147.3z"/>
	<line class="st9" x1="160.2" y1="96.8" x2="190" y2="96.8"/>
	<rect x="180.3" y="79" class="st9" width="5.2" height="17.8"/>
	<rect x="175" y="82.3" class="st9" width="5.2" height="14.5"/>
	<rect x="169.8" y="85.4" class="st9" width="5.2" height="11.4"/>
	<rect x="164.6" y="88.1" class="st9" width="5.2" height="8.7"/>
	<rect x="141.8" y="63.8" class="st9" width="60" height="4.3"/>
</g>
<g>
	<path class="st16" d="M210.6,106.4V127c0,2.3-1.7,4-4,4h-38.3c-2.3,0-4-1.7-4-4v-19.2l18.5,8c2.1,0.9,4.3,0.9,6.4,0L210.6,106.4z"
		/>
	<path class="st16" d="M229.6,98.3l-19,8.1l-21.5,9.2c-2.1,0.9-4.3,0.9-6.4,0l-18.3-7.8l-22-9.3c-1.6-0.7-1.6-2.8,0-3.5l40.8-17.5
		c1.7-0.7,3.6-0.7,5.2,0L229.3,95C231.2,95.5,231.2,97.8,229.6,98.3z"/>
	<ellipse class="st16" cx="186" cy="96.6" rx="4" ry="1.6"/>
	<path class="st16" d="M148.5,114.9l1,11.4h-5.9l1-11.4c-1-0.7-1.7-1.9-1.7-3.1c0-1.6,1-2.9,2.3-3.5c0.3-0.2,0.9-0.3,1.4-0.3
		c0.5,0,1,0.2,1.4,0.3c1.4,0.5,2.4,1.9,2.4,3.5C150.2,113.2,149.5,114.4,148.5,114.9z"/>
	<polyline class="st16" points="182.2,96.6 146,99.8 146.4,108 	"/>
</g>
<g class="st3">
	<circle class="st15" cx="186" cy="103.9" r="44.7"/>
	<path class="st15" d="M225.9,83.6c0,0.3,0.1,0.6,0.1,0.9c0,7.3-17.8,13.2-39.9,13.2s-39.9-5.8-39.9-13.2c0-0.3,0-0.6,0.1-0.9"/>
	<path class="st15" d="M206.9,64.5c0.9,0.7,1.3,1.6,1.3,2.5c0,4.1-9.9,7.3-22.1,7.3s-22.1-3.2-22.1-7.3c0-0.9,0.4-1.8,1.3-2.5"/>
	<path class="st15" d="M224,127.5c-5,5.4-20.2,9.2-38,9.2s-33-3.9-38-9.2"/>
	<path class="st15" d="M230.7,103.9c0,7.9-20,14.3-44.7,14.3s-44.7-6.4-44.7-14.3"/>
	<path class="st15" d="M186,148.7c-21.3,0-38.6-20-38.6-44.7s17.2-44.7,38.6-44.7"/>
	<path class="st15" d="M186,148.7c-12.7,0-22.9-20-22.9-44.7s10.2-44.7,22.9-44.7"/>
	<path class="st15" d="M186,59.3c19,0,34.5,20,34.5,44.7s-15.3,44.7-34.5,44.7"/>
	<path class="st15" d="M186,148.7c-2.5,0-4.5-20-4.5-44.7s2-44.7,4.5-44.7"/>
	<path class="st15" d="M186,59.3c9.5,0,17.2,20,17.2,44.7s-7.7,44.7-17.2,44.7"/>
</g>
<g class="st3">
	<path class="st15" d="M210.2,82.4c2.8,0.1,4.2,2.4,4.2,4.1s-2.1,4.2-2.1,4.2c-1.2,2.3,1.4,2.3,1.4,2.3H227V64.3
		c0-2.7-2.2-4.9-4.9-4.9h-28.6v13.3c0,0,0.1,1.6-1.3,1.4c-0.3,0-0.5-0.2-0.8-0.3c-1-0.7-5-3.2-7.3-0.1c-1.1,1.5-1.1,3.6,0,5.2
		c2.3,3.1,6.3,0.5,7.3-0.2c0.2-0.2,0.5-0.3,0.8-0.3c1.4-0.2,1.3,1.4,1.3,1.4v13.3h13.2c0,0,2.6,0,1.4-2.3c0,0-2.1-2.5-2.1-4.2
		S207.4,82.4,210.2,82.4z"/>
	<path class="st15" d="M178.5,148.5L178.5,148.5h-27.6c-3.3,0-5.9-2.6-5.9-5.9v-27.7h13.2c0,0,2.6,0,1.4,2.3c0,0-2.1,2.5-2.1,4.2
		s1.4,4.2,4.2,4.1c2.8,0.1,4.2-2.4,4.2-4.1s-2.1-4.2-2.1-4.2c-1.2-2.3,1.4-2.3,1.4-2.3h13.2v13.3c0,0,0.1,1.6-1.3,1.4
		c-0.3,0-0.5-0.2-0.8-0.3c-1-0.7-5-3.2-7.3-0.1c-1.1,1.5-1.1,3.6,0,5.2c2.3,3.1,6.3,0.5,7.3-0.2c0.2-0.2,0.5-0.3,0.8-0.3
		c1.4-0.2,1.3,1.4,1.3,1.4L178.5,148.5z"/>
	<path class="st15" d="M145,114.9v-28c0-3,2.5-5.5,5.5-5.5h28v13.2c0,0,0,2.6-2.3,1.4c0,0-2.5-2.1-4.2-2.1s-4.1,1.4-4.1,4.2
		c-0.1,2.8,2.4,4.2,4.1,4.2c1.7,0,4.2-2.1,4.2-2.1c2.3-1.2,2.3,1.4,2.3,1.4v13.2"/>
	<path class="st15" d="M178.5,114.8L178.5,114.8l13.3,0.1c0,0,1.6,0,1.4-1.4c0-0.3-0.2-0.5-0.3-0.8c-0.7-1-3.3-5-0.2-7.3
		c1.5-1.1,3.6-1.1,5.2,0c3.1,2.3,0.6,6.3-0.1,7.3c-0.2,0.2-0.3,0.5-0.3,0.8c-0.2,1.4,1.4,1.4,1.4,1.4h13.3v28.5
		c0,2.9-2.3,5.2-5.2,5.2h-28.3"/>
</g>
<g class="st3">
	<polyline class="st15" points="272,171.1 240.8,171.1 240.8,161.8 218,181.2 240.8,200.6 240.8,191.3 285,191.3 285,182 
		307.8,201.4 285,220.8 285,211.5 253.8,211.5 	"/>
</g>
<g>
	<path class="st17" d="M383.6,216.1c15.1,0,27.3,12.2,27.3,27.3c0,29.3-27.3,54.6-27.3,54.6s-27.3-25.3-27.3-54.6
		C356.3,228.3,368.5,216.1,383.6,216.1z"/>
	<ellipse class="st18" cx="383.6" cy="241.1" rx="18.5" ry="18.5"/>
	<path class="st17" d="M394.8,291.1c7.9,1.3,13.3,3.9,13.3,7c0,4.3-11,7.8-24.5,7.8s-24.5-3.5-24.5-7.8c0-3,5.3-5.6,13-6.9"/>
</g>
<g class="st3">
	<g class="st10">
		<g>
			<polyline class="st16" points="229,116.1 230.1,103.2 217.2,104.3 			"/>
		</g>
		<ellipse class="st18" cx="204.8" cy="128.5" rx="20.1" ry="20.1"/>
		<line class="st18" x1="219" y1="114.3" x2="230.1" y2="103.2"/>
	</g>
	<g class="st10">
		<ellipse class="st18" cx="161.2" cy="79.2" rx="20.1" ry="20.1"/>
		<line class="st18" x1="161.2" y1="99.3" x2="161.2" y2="122.3"/>
		<line class="st18" x1="151.8" y1="110.8" x2="170.5" y2="110.8"/>
	</g>
</g>
<g class="st3">
	<g class="st10">
		<path class="st19" d="M325,103.7h-71.7c-5,0-9-4-9-9V23c0-5,4-9,9-9H325c5,0,9,4,9,9v71.7C334,99.7,329.9,103.7,325,103.7z"/>
	</g>
	<g class="st10">
		<g>
			<path class="st0" d="M312.8,78.1l-9-14c-0.2-0.4-0.6-0.6-1.1-0.6h-11.8l-0.3-4.1H301c0.7,0,1.3-0.6,1.3-1.3
				c0-0.7-0.6-1.3-1.3-1.3h-10.6l-0.3-4.1c-0.3-4.6-4.2-8.3-8.9-8.3c-0.3,0-0.7,0.1-0.9,0.4c-0.2,0.3-0.4,0.6-0.3,0.9l1.4,18.9
				c0,0.1,0,0.1,0.1,0.2c0,0.1,0,0.1,0.1,0.2c0,0.1,0.1,0.2,0.2,0.2c0,0.1,0.1,0.1,0.1,0.2c0.1,0.1,0.2,0.1,0.3,0.2
				c0,0,0.1,0.1,0.1,0.1c0.1,0.1,0.3,0.1,0.5,0.1c0,0,0,0,0,0c0,0,0,0,0,0h19.4l8.6,13.4c0.2,0.4,0.6,0.6,1.1,0.6
				c0.2,0,0.5-0.1,0.7-0.2C313,79.4,313.2,78.7,312.8,78.1z M283.8,63.5l-1.2-16.3c2.7,0.6,4.8,2.9,5.1,5.8l0.8,10.5H283.8z"/>
			<path class="st0" d="M301.3,71.9c-0.7-0.2-1.3,0.3-1.5,0.9c-1.7,7.3-8.3,12.6-15.8,12.6c-8.9,0-16.2-7.3-16.2-16.2
				c0-5.5,2.8-10.6,7.4-13.6c0.6-0.4,0.7-1.2,0.4-1.7c-0.4-0.6-1.2-0.7-1.7-0.4c-5.3,3.5-8.5,9.3-8.5,15.7
				c0,10.3,8.4,18.7,18.7,18.7c8.7,0,16.3-6.1,18.3-14.6C302.4,72.7,301.9,72.1,301.3,71.9z"/>
		</g>
		<g>
			<path class="st0" d="M283.7,40.7c-3.1,0-5.5-2.5-5.5-5.5c0-3,2.5-5.5,5.5-5.5s5.5,2.5,5.5,5.5C289.3,38.2,286.8,40.7,283.7,40.7z
				 M283.7,32.3c-1.7,0-3,1.3-3,3c0,1.6,1.4,3,3,3c1.7,0,3-1.3,3-3C286.8,33.6,285.4,32.3,283.7,32.3z"/>
		</g>
	</g>
</g>
<g class="st3">
	<path class="st20" d="M212,125.8c-3.2,13.5-15.6,23.4-30,22.9c-16.5-0.5-29.5-14.3-28.9-30.8c0.4-11.8,7.6-21.9,17.7-26.4"/>
	<polyline class="st20" points="177.4,83.4 179.5,111.6 210.3,111.6 224.7,134.1 	"/>
	<circle class="st20" cx="183" cy="67.5" r="8.2"/>
	<line class="st20" x1="178" y1="91.5" x2="197.3" y2="91.5"/>
</g>
</svg>
