<?xml version="1.0" encoding="utf-8"?>
<!-- Generator: Adobe Illustrator 24.0.1, SVG Export Plug-In . SVG Version: 6.00 Build 0)  -->
<svg version="1.1" id="Layer_1" xmlns="http://www.w3.org/2000/svg" xmlns:xlink="http://www.w3.org/1999/xlink" x="0px" y="0px"
	 viewBox="0 0 372 208" style="enable-background:new 0 0 372 208;" xml:space="preserve">
<style type="text/css">
	.st0{fill:#FFFFFF;}
	.st1{fill:#2F499F;}
	.st2{display:none;fill:none;stroke:#2F499F;stroke-miterlimit:10;}
	.st3{fill:none;stroke:#2F499F;stroke-width:2;stroke-miterlimit:10;}
	.st4{display:none;}
	.st5{display:inline;fill:none;stroke:#2F499F;stroke-miterlimit:10;}
	.st6{fill:none;stroke:#304B9E;stroke-linecap:round;stroke-linejoin:round;stroke-miterlimit:10;}
	.st7{display:none;fill:none;stroke:#304B9E;stroke-linecap:round;stroke-linejoin:round;stroke-miterlimit:10;}
	.st8{display:inline;fill:none;stroke:#304B9E;stroke-linecap:round;stroke-linejoin:round;stroke-miterlimit:10;}
	.st9{display:inline;fill:none;stroke:#2F499F;stroke-linecap:round;stroke-linejoin:round;stroke-miterlimit:10;}
	.st10{display:inline;}
	.st11{fill:none;stroke:#2F499F;stroke-linecap:round;stroke-linejoin:round;stroke-miterlimit:10;}
	.st12{fill:none;stroke:#2F499F;stroke-width:1;stroke-linecap:round;stroke-linejoin:round;stroke-miterlimit:10.0002;}
	.st13{fill:none;stroke:#2F499F;stroke-miterlimit:10;}
	.st14{display:none;fill:none;stroke:#2F499F;stroke-linecap:round;stroke-linejoin:round;stroke-miterlimit:10;}
</style>
<rect class="st0" width="372" height="208"/>
<path class="st1" d="M-190.1,115.8c2,0,3.7,0,5,0.1h10.4c0.8,0,1.4,2.2,1.4,3.1s-0.6,1.6-1.4,1.6h-9.7c-0.1,0-0.2,0-0.2,0
	c-2.7,0.5-4.6,2.1-4.6,4.9c0,2.1,1.1,3.2,2.8,4.2c0.1,0.1,0.2,0.1,0.3,0.1c0.3,0.1,1.3,0.4,2.8,0.8l1,0.3c1.2,0.3,2.4,0.7,3.6,1
	l0.3,0.1c4,1.1,8.9,2.5,9.7,2.7c0.1,0,0.2,0,0.3,0c0.2,0,0.3,0,0.5,0c0.5,0,1-0.1,1.4-0.2c0.2,0,0.3-0.1,0.4-0.2l15.3-10.6
	c0,0,0,0,0.1,0l2.7-2.1c0,0,0,0,0.1,0c0.1-0.1,0.2-0.1,0.3-0.2c0.2-0.1,0.3-0.1,0.4-0.2c0.1,0,0.2-0.1,0.3-0.1c0.2,0,0.3,0,0.4,0
	c0.2,0,0.3,0,0.5,0.1c0.1,0,0.1,0,0.2,0c1.6,0.1,2.8,1.6,2.8,3.3c0,0.9-0.3,1.7-0.9,2.4l0,0c-0.2,0.2-0.5,0.4-0.7,0.6
	c-0.1,0-0.1,0.1-0.2,0.1l-1.1,0.8l-23.9,18.4h-0.1c-0.5,0.2-0.8,0.2-1.2,0.2c-0.2,0-0.5,0-0.7-0.1h-0.1c-10.9-3-25.5-6.9-32.7-8.8
	l-0.5-0.2h-0.1c-2.2-0.6-4-1-5.5-1.1c0-0.1,0-0.1,0-0.2v-1.4v-9.8c4-0.4,6.8-2.7,9.5-4.8c0.6-0.5,1.2-1,1.9-1.5
	C-197,117.5-194.1,115.8-190.1,115.8 M-190.1,114.1c-4.6,0-7.7,1.8-10.3,3.8c-0.7,0.5-1.4,1.1-1.9,1.5h-0.1
	c-2.7,2.1-5.2,4.1-8.6,4.4l-1.5,0.2v1.5v9.8v1.4v0.1v0.1v1.4l1.5,0.2c1.3,0.1,3.1,0.5,5.2,1.1l0,0l0.5,0.2h0.1h0.1
	c7.3,1.9,21.9,5.9,32.7,8.8l0,0h0.1h0.1c0.4,0.1,0.7,0.1,1,0.1c0.6,0,1.2-0.1,1.8-0.3l0,0l0,0h0.1l0.2-0.1l0.2-0.1l23.9-18.4l1-0.8
	l0,0c0.4-0.2,0.7-0.5,1-0.8c0.1-0.1,0.1-0.1,0.2-0.2c0.9-0.9,1.3-2.2,1.3-3.4c0-2.6-1.9-4.7-4.3-5l0,0c-0.3-0.1-0.5-0.1-0.8-0.1
	c-0.2,0-0.4,0-0.6,0.1h-0.1h-0.1h-0.1c-0.1,0-0.2,0.1-0.4,0.1c-0.3,0.1-0.5,0.2-0.7,0.3l0,0l0,0c-0.1,0-0.1,0.1-0.2,0.1h-0.1
	l-0.2,0.2l-2.6,2l0,0l0,0L-167,133c-0.3,0.1-0.6,0.1-0.9,0.1c-0.1,0-0.3,0-0.4,0c-0.8-0.2-4-1.1-9.7-2.7l-0.3-0.1
	c-1.3-0.4-2.5-0.7-3.7-1l-1-0.3l-1.7-0.5c-0.5-0.2-0.9-0.3-1-0.3c-1.5-0.9-2-1.6-2-2.8c0-1.8,1.1-2.9,3.2-3.3h9.7c1.7,0,3-1.4,3-3.2
	c0-0.7-0.6-4.7-3-4.7H-185C-186.3,114.2-187.9,114.1-190.1,114.1L-190.1,114.1z"/>
<rect x="141.1" y="59.1" class="st2" width="89.8" height="89.8"/>
<g>
	<path class="st1" d="M-153.9,100.4c0.1,0.1,0.2,0.2,0.2,0.4c0,0.2,0,0.4,0,0.7c0,0.3-0.1,0.3-0.4,0.4c-0.2,0-0.5,0-0.7,0
		c-0.3,0-0.7,0-1,0l0,0h-0.1v0.1c0.2,0.3,0.4,0.6,0.4,1c0,0.1,0.1,0.1,0.1,0.1l0,0c0.2,0,0.4,0,0.6,0c0.2,0,0.4,0,0.6,0
		c0.3,0,0.3,0.1,0.3,0.3c0,0.2,0,0.5,0,0.7s-0.1,0.3-0.3,0.3s-0.4,0-0.6,0c-0.2,0-0.4,0-0.6,0l0,0c-0.1,0-0.1,0-0.1,0.1
		c-0.2,1.2-1,2-2.2,2.5c-0.4,0.1-0.8,0.2-1.2,0.3c0.2,0.2,0.4,0.4,0.6,0.6c1.1,1.2,2.2,2.5,3.2,3.8c0.1,0.1,0.1,0.2,0,0.3
		c-0.1,0.1-0.1,0.2-0.3,0.2l0,0c-0.3,0-0.5,0-0.8,0c-0.2,0-0.5,0-0.7,0l0,0c-0.1,0-0.2-0.1-0.3-0.2c-0.7-0.9-1.5-1.8-2.2-2.6
		c-0.6-0.7-1.2-1.3-1.8-2c-0.1-0.1-0.1-0.2-0.1-0.3c0-0.3,0-0.6,0-0.9c0-0.2,0.1-0.3,0.3-0.3c0.1,0,0.1,0,0.2,0c0.2,0,0.4,0,0.6,0
		c0.2,0,0.4,0,0.7,0c0.6-0.1,1.1-0.2,1.5-0.5c0.3-0.2,0.4-0.4,0.5-0.8c0-0.1,0-0.1-0.1-0.1l0,0c-0.6,0-1.2,0-1.9,0
		c-0.4,0-0.9,0-1.3,0h-0.1h-0.1c-0.2,0-0.3-0.1-0.3-0.3c0-0.2,0-0.5,0-0.7c0-0.3,0.1-0.3,0.3-0.3c0.5,0,1,0,1.6,0c0.5,0,1.1,0,1.6,0
		c0,0,0,0,0.1,0h0.1c-0.1-0.3-0.3-0.5-0.6-0.6c-0.4-0.3-0.9-0.3-1.4-0.3c-0.2,0-0.4,0-0.6,0c-0.2,0-0.4,0-0.6,0h-0.1
		c-0.2,0-0.3-0.1-0.4-0.3c0-0.3,0-0.6,0-1c0-0.2,0.1-0.3,0.2-0.3C-158.6,100.4-156.3,100.4-153.9,100.4 M-153.9,99.3h-7.1
		c-0.2,0-0.3,0-0.5,0.1c-0.5,0.2-0.9,0.8-0.9,1.4c0,0.2,0,0.4,0,0.6v0.4c0,0.3,0.1,0.6,0.2,0.8c-0.1,0.2-0.2,0.5-0.2,0.8
		c0,0.2,0,0.5,0,0.7c0,0.4,0.1,0.8,0.4,1c-0.2,0.3-0.4,0.6-0.4,1v0.3c0,0.2,0,0.4,0,0.5c0,0.4,0.1,0.8,0.4,1.1
		c0.5,0.6,1.1,1.2,1.8,2s1.5,1.7,2.2,2.6c0.3,0.4,0.7,0.6,1.2,0.6l0,0c0.2,0,0.5,0,0.7,0s0.5,0,0.7,0h0.1c0.6,0,1-0.3,1.3-0.8
		c0.2-0.5,0.2-1.1-0.2-1.5v-0.1c-0.8-1-1.7-2.1-2.6-3.1c1.1-0.5,1.8-1.3,2.2-2.3h0.4h0.1c0.9,0,1.4-0.6,1.4-1.4c0-0.2,0-0.5,0-0.7
		c0-0.4-0.1-0.7-0.3-0.9c0.2-0.2,0.3-0.6,0.3-0.9v-0.2c0-0.1,0-0.3,0-0.4c0-0.6-0.3-1.1-0.7-1.4C-153.5,99.4-153.7,99.3-153.9,99.3
		L-153.9,99.3z"/>
</g>
<circle class="st3" cx="-157.5" cy="106.3" r="13"/>
<g class="st4">
	<polygon class="st5" points="230.9,81.5 217.1,81.5 203.4,81.5 203.4,62.6 230.9,62.6 	"/>
	<polygon class="st5" points="218.7,66.4 215.6,66.4 215.6,70.5 211.5,70.5 211.5,73.6 215.6,73.6 215.6,77.6 218.7,77.6 
		218.7,73.6 222.7,73.6 222.7,70.5 218.7,70.5 	"/>
	<rect x="212.9" y="59.3" class="st5" width="8.2" height="3.4"/>
</g>
<g>
	<path class="st1" d="M-54.1,41.1c0.1,0.1,0.1,0.1,0,0.3c-2.6,2.6-5.2,5.2-7.8,7.8c-0.1,0.1-0.2,0.1-0.3,0c-1.2-1.3-2.5-2.5-3.8-3.8
		c-0.1-0.1-0.1-0.1,0-0.3c0.6-0.6,1.1-1.1,1.7-1.7c0,0,0.1-0.1,0.2-0.1c0,0.1,0,0.1,0.1,0.1c0.6,0.6,1.2,1.2,1.8,1.9
		c0.1,0.1,0.2,0.1,0.3,0c2-2,3.9-3.9,5.9-5.9c0.1-0.1,0.2-0.1,0.3,0C-55.2,40-54.7,40.6-54.1,41.1z"/>
	<path class="st1" d="M-49.3,39.6c0-2,0-4,0-5.9c0-0.2,0-0.2-0.2-0.2c-1.3,0.1-2.7,0-4-0.2c-2.6-0.3-5.1-1.2-7.1-3
		c-0.1-0.1-0.2-0.1-0.3,0c-0.3,0.3-0.7,0.5-1,0.8c-1.9,1.3-4.1,1.9-6.3,2.2c-1.2,0.2-2.5,0.2-3.7,0.1c-0.2,0-0.2,0-0.2,0.2
		c0,3.8,0,7.5,0,11.3c0,0.7,0.1,1.5,0.3,2.2c0.4,1.6,1.2,3,2.1,4.3c1.7,2.3,3.8,4.1,6.2,5.6c0.8,0.5,1.7,1,2.7,1.3
		c0.1,0,0.2,0,0.3,0c0.4-0.1,0.8-0.3,1.1-0.5c2-1,3.7-2.3,5.3-3.8c1.4-1.4,2.7-2.9,3.6-4.7c0.7-1.3,1.1-2.7,1.1-4.1
		C-49.3,43.4-49.3,41.5-49.3,39.6L-49.3,39.6z M-51.7,45.1c0,1.2-0.4,2.4-1,3.5c-0.8,1.5-1.9,2.7-3.1,3.8c-1.4,1.3-3,2.5-4.7,3.4
		c-0.2,0.1-0.4,0.1-0.5,0c-2.2-1.2-4.1-2.7-5.8-4.5c-1-1.1-1.9-2.4-2.5-3.8c-0.3-0.8-0.5-1.7-0.5-2.6c0-1.4,0-2.8,0-4.2
		c0-1.6,0-3.1,0-4.7c0-0.2,0-0.2,0.2-0.2c2.6-0.1,5.1-0.6,7.5-1.8c0.4-0.2,0.8-0.4,1.2-0.7c0.1-0.1,0.2-0.1,0.3,0
		c1.6,1,3.4,1.7,5.2,2.1c1.2,0.2,2.3,0.4,3.5,0.4c0.2,0,0.2,0.1,0.2,0.2c0,2,0,4.1,0,6.1C-51.7,43.1-51.7,44.1-51.7,45.1z"/>
	<path class="st1" d="M-54.1,41.4c-2.6,2.6-5.2,5.2-7.8,7.8c-0.1,0.1-0.2,0.1-0.3,0c-1.2-1.3-2.5-2.5-3.8-3.8
		c-0.1-0.1-0.1-0.1,0-0.3c0.6-0.6,1.1-1.1,1.7-1.7c0,0,0.1-0.1,0.2-0.1c0,0.1,0,0.1,0.1,0.1c0.6,0.6,1.2,1.2,1.8,1.9
		c0.1,0.1,0.2,0.1,0.3,0c2-2,3.9-3.9,5.9-5.9c0.1-0.1,0.2-0.1,0.3,0c0.5,0.6,1.1,1.1,1.7,1.7C-54,41.2-54,41.3-54.1,41.4z"/>
	<path class="st1" d="M-54.1,41.4c-2.6,2.6-5.2,5.2-7.8,7.8c-0.1,0.1-0.2,0.1-0.3,0c-1.2-1.3-2.5-2.5-3.8-3.8
		c-0.1-0.1-0.1-0.1,0-0.3c0.6-0.6,1.1-1.1,1.7-1.7c0,0,0.1-0.1,0.2-0.1c0,0.1,0,0.1,0.1,0.1c0.6,0.6,1.2,1.2,1.8,1.9
		c0.1,0.1,0.2,0.1,0.3,0c2-2,3.9-3.9,5.9-5.9c0.1-0.1,0.2-0.1,0.3,0c0.5,0.6,1.1,1.1,1.7,1.7C-54,41.2-54,41.3-54.1,41.4z"/>
</g>
<path class="st6" d="M-52.1,86.8c0.3,0.1,0.3,0.4,0.3,0.7c0,0.4,0,0.8,0,1.2c0,0.5-0.2,0.6-0.6,0.6c-1.1,0-2.1,0-3.2,0h-0.1
	c0,0.1,0,0.1,0,0.1c0.4,0.5,0.7,1.2,0.8,1.8c0,0.2,0.1,0.2,0.3,0.2c0.7,0,1.5,0,2.2,0c0.5,0,0.6,0.2,0.6,0.6s0,0.9,0,1.3
	s-0.2,0.6-0.6,0.6c-0.7,0-1.5,0-2.2,0c-0.1,0-0.2,0-0.2,0.2c-0.4,2.2-1.8,3.7-3.9,4.5c-0.7,0.3-1.4,0.4-2.2,0.5
	c0.4,0.4,0.7,0.8,1.1,1.2c2,2.2,3.9,4.5,5.8,6.8c0.1,0.2,0.2,0.3,0.1,0.5c-0.1,0.2-0.3,0.3-0.5,0.3c-0.9,0-1.8,0-2.7,0
	c-0.3,0-0.5-0.1-0.6-0.3c-1.3-1.6-2.7-3.2-4-4.8c-1.1-1.2-2.1-2.4-3.2-3.6c-0.2-0.2-0.3-0.4-0.2-0.6c0-0.5,0-1.1,0-1.6
	c0-0.4,0.2-0.6,0.6-0.6c0.8,0,1.7,0,2.5,0c1-0.1,2-0.3,2.8-0.9c0.5-0.4,0.8-0.8,1-1.4c0.1-0.2,0-0.2-0.1-0.2c-1.9,0-3.8,0-5.7,0
	c-0.1,0-0.3,0-0.4,0c-0.4,0-0.6-0.2-0.6-0.6s0-0.9,0-1.3c0-0.5,0.2-0.6,0.6-0.6c1.9,0,3.9,0,5.8,0c0.1,0,0.1,0,0.2,0
	c-0.2-0.5-0.6-0.8-1-1.1c-0.8-0.5-1.7-0.6-2.6-0.6c-0.8,0-1.6,0-2.4,0c-0.4,0-0.6-0.2-0.6-0.6c0-0.6,0-1.2,0-1.8
	c0-0.3,0.1-0.5,0.3-0.6C-60.7,86.8-56.4,86.8-52.1,86.8z"/>
<circle class="st7" cx="186" cy="95.5" r="14.5"/>
<g class="st4">
	<path class="st5" d="M157.6,94.1c0-15.7,12.7-28.4,28.4-28.4s28.4,12.7,28.4,28.4s-12.7,28.4-28.4,28.4"/>
	<polygon class="st5" points="152.3,94.1 157.6,103.2 162.9,94.1 	"/>
</g>
<g class="st4">
	<path class="st8" d="M159.4,125.4c0,0,12.5-11,25.4-3.5c0.7,0.4,1.4,0.6,2.2,0.6h8.4c1.3,0,2.6,0.3,3.7,1c1.6,1,3.5,2.7,3.1,4.9
		c-0.3,1.5-1.6,2.5-3.2,2.5h-18.2"/>
	<path class="st8" d="M170.7,141.5l1.8-1.2c0.9-0.6,1.9-0.9,2.9-0.9h23.3c1,0,1.9-0.3,2.8-0.8l11.7-7.2c0.5-0.3,1-0.8,1.4-1.3
		l7.1-9.6c0.5-0.7,0.4-1.8-0.3-2.3c-0.9-0.6-2.4-1.2-5-0.6c-1.2,0.2-2.3,0.8-3.1,1.7l-3,3c-0.7,0.7-1.5,1.2-2.3,1.6l-5.7,2.7"/>
	<path class="st8" d="M150.1,127.8l5.3-3.9c0.9-0.6,2.1-0.4,2.7,0.4l13.1,18c0.6,0.9,0.4,2.1-0.4,2.7l-5.3,3.9"/>
</g>
<path class="st7" d="M190.7,87.6c0.2,0.1,0.2,0.3,0.2,0.5c0,0.3,0,0.6,0,0.9s-0.1,0.5-0.5,0.5c-0.8,0-1.6,0-2.3,0H188
	c0,0.1,0,0.1,0,0.1c0.3,0.4,0.5,0.9,0.6,1.3c0,0.1,0.1,0.2,0.2,0.2c0.5,0,1.1,0,1.6,0c0.3,0,0.5,0.1,0.5,0.5c0,0.3,0,0.6,0,1
	c0,0.3-0.1,0.4-0.4,0.4c-0.5,0-1.1,0-1.6,0c-0.1,0-0.2,0-0.2,0.1c-0.3,1.7-1.3,2.7-2.9,3.3c-0.5,0.2-1,0.3-1.6,0.4
	c0.3,0.3,0.5,0.6,0.8,0.9c1.5,1.6,2.9,3.4,4.3,5.1c0.1,0.1,0.1,0.3,0.1,0.4c-0.1,0.2-0.2,0.2-0.4,0.2c-0.7,0-1.3,0-2,0
	c-0.2,0-0.3-0.1-0.5-0.2c-1-1.2-2-2.4-3-3.5c-0.8-0.9-1.6-1.8-2.4-2.6c-0.1-0.1-0.2-0.3-0.2-0.5c0-0.4,0-0.8,0-1.2
	c0-0.3,0.1-0.4,0.5-0.5c0.6,0,1.2,0,1.8,0c0.7-0.1,1.4-0.2,2-0.7c0.3-0.3,0.6-0.6,0.7-1c0-0.1,0-0.1-0.1-0.1c-1.4,0-2.8,0-4.2,0
	c-0.1,0-0.2,0-0.3,0c-0.3,0-0.4-0.1-0.4-0.4s0-0.6,0-0.9s0.1-0.5,0.5-0.5c1.4,0,2.9,0,4.3,0c0,0,0.1,0,0.2,0
	c-0.2-0.4-0.4-0.6-0.8-0.8c-0.6-0.3-1.3-0.4-1.9-0.5c-0.6,0-1.2,0-1.8,0c-0.3,0-0.5-0.1-0.5-0.5s0-0.9,0-1.3c0-0.2,0.1-0.4,0.3-0.4
	C184.4,87.6,187.6,87.6,190.7,87.6z"/>
<rect x="157.9" y="82.1" class="st2" width="56.1" height="26.6"/>
<g class="st4">
	<line class="st9" x1="151.6" y1="75" x2="159.5" y2="75"/>
	<line class="st9" x1="164.7" y1="75" x2="172.6" y2="75"/>
	<line class="st9" x1="177.9" y1="75" x2="185.8" y2="75"/>
	<line class="st9" x1="191" y1="75" x2="198.9" y2="75"/>
	<path class="st9" d="M204.2,75h0.8c1.9,0,3.5,1.6,3.5,3.5v43.6c0,1.9-1.6,3.5-3.5,3.5h-59.4c-1.9,0-3.5-1.6-3.5-3.5V78.6
		c0-1.9,1.6-3.5,3.5-3.5h0.8"/>
	<g class="st10">
		<rect x="146.3" y="66.9" class="st11" width="5.3" height="15.2"/>
		<rect x="159.5" y="66.9" class="st11" width="5.3" height="15.2"/>
		<rect x="172.6" y="66.9" class="st11" width="5.3" height="15.2"/>
		<rect x="185.8" y="66.9" class="st11" width="5.3" height="15.2"/>
		<rect x="198.9" y="66.9" class="st11" width="5.3" height="15.2"/>
	</g>
	<rect x="146.3" y="88.6" class="st9" width="9.9" height="9.9"/>
	<rect x="162.3" y="88.6" class="st9" width="9.9" height="9.9"/>
	<rect x="178.3" y="88.6" class="st9" width="9.9" height="9.9"/>
	<rect x="194.3" y="88.6" class="st9" width="9.9" height="9.9"/>
	<rect x="146.3" y="105" class="st9" width="9.9" height="9.9"/>
	<rect x="162.3" y="105" class="st9" width="9.9" height="9.9"/>
	<rect x="178.3" y="105" class="st9" width="9.9" height="9.9"/>
	<g class="st10">
		<ellipse class="st12" cx="211.5" cy="122.6" rx="18.5" ry="18.5"/>
		<circle class="st11" cx="211.5" cy="122.6" r="15.3"/>
		<line class="st11" x1="211.5" y1="112.2" x2="211.5" y2="121.1"/>
		<line class="st11" x1="211.5" y1="107.3" x2="211.5" y2="110.3"/>
		<line class="st11" x1="196.2" y1="122.6" x2="199.3" y2="122.6"/>
		<line class="st11" x1="211.5" y1="137.9" x2="211.5" y2="134.8"/>
		<line class="st11" x1="226.8" y1="122.6" x2="223.8" y2="122.6"/>
		<line class="st11" x1="201.2" y1="112.3" x2="202.3" y2="113.4"/>
		<line class="st11" x1="201.2" y1="132.9" x2="202.3" y2="131.8"/>
		<line class="st11" x1="221.8" y1="132.9" x2="220.7" y2="131.8"/>
		<line class="st11" x1="221.8" y1="112.3" x2="220.7" y2="113.4"/>
		<line class="st11" x1="218.3" y1="129.2" x2="212.6" y2="123.6"/>
		<circle class="st11" cx="211.5" cy="122.6" r="1.5"/>
	</g>
</g>
<g>
	<path class="st11" d="M179.5,93.3c0,10.9-7.8,19.7-14.4,19.7c-5.6,0-14.4-8.8-14.4-19.7S157.2,77,165.1,77
		C173.1,77,179.5,82.4,179.5,93.3z"/>
	<path class="st11" d="M173.4,112.1c-3.9,5.1-7.9,4.4-7.9,4.4s-4.7,0.7-8.6-4.4c-9.2,4.5-15.8,14.6-15.8,14.6s10.8,4.3,24,4.3
		c13.3,0,24-4.3,24-4.3S182.5,116.5,173.4,112.1z"/>
</g>
<g>
	<path class="st13" d="M207.5,267.8c0,0-2.7,2.6-10.3,2.6c0,0,0,5.6,0,11.3c0,5.7,10.3,11.4,10.3,11.4s10.3-5.7,10.3-11.4
		c0-5.7,0-11.3,0-11.3C210.2,270.4,207.5,267.8,207.5,267.8z"/>
	<g>
		<path class="st11" d="M192.6,269.8c0,10.9-7.8,19.7-14.4,19.7c-5.6,0-14.4-8.8-14.4-19.7s6.4-16.3,14.4-16.3
			S192.6,258.9,192.6,269.8z"/>
		<path class="st11" d="M186.5,288.6c-3.9,5.1-7.9,4.4-7.9,4.4s-4.7,0.7-8.6-4.4c-9.2,4.5-15.8,14.6-15.8,14.6s10.8,4.3,24,4.3
			c13.3,0,24-4.3,24-4.3S195.7,293,186.5,288.6z"/>
	</g>
</g>
<g>
	<g>
		<path class="st11" d="M433.8,93.3c0,10.9-7.8,19.7-14.4,19.7c-5.6,0-14.4-8.8-14.4-19.7S411.5,77,419.4,77S433.8,82.4,433.8,93.3z
			"/>
		<path class="st11" d="M427.7,112.1c-3.9,5.1-7.9,4.4-7.9,4.4s-4.7,0.7-8.6-4.4c-9.2,4.5-15.8,14.6-15.8,14.6s10.8,4.3,24,4.3
			c13.3,0,24-4.3,24-4.3S436.9,116.5,427.7,112.1z"/>
	</g>
	<g>
		<path class="st11" d="M458.8,93.2c0,6.2-4.4,11.2-8.2,11.2c-3.2,0-8.2-5-8.2-11.2s3.7-9.3,8.2-9.3S458.8,87,458.8,93.2z"/>
		<path class="st11" d="M455.3,103.9c-2.2,2.9-4.5,2.5-4.5,2.5s-2.7,0.4-4.9-2.5c-5.2,2.5-9,8.3-9,8.3s6.1,2.4,13.6,2.4
			s13.6-2.4,13.6-2.4S460.6,106.4,455.3,103.9z"/>
	</g>
	<g>
		<path class="st11" d="M396.4,93.2c0,6.2-4.4,11.2-8.2,11.2c-3.2,0-8.2-5-8.2-11.2s3.7-9.3,8.2-9.3S396.4,87,396.4,93.2z"/>
		<path class="st11" d="M392.9,103.9c-2.2,2.9-4.5,2.5-4.5,2.5s-2.7,0.4-4.9-2.5c-5.2,2.5-9,8.3-9,8.3s6.1,2.4,13.6,2.4
			s13.6-2.4,13.6-2.4S398.2,106.4,392.9,103.9z"/>
	</g>
</g>
<g class="st4">
	<path class="st9" d="M218.6,103.4c0-0.5,0-1-0.1-1.4l1.9-1.3l-0.8-2.6l-2.3,0.1c-0.5-0.8-1-1.6-1.7-2.3l0.8-2.2l-2.2-1.6l-1.8,1.4
		c-0.9-0.4-1.8-0.7-2.7-0.9l-0.7-2.2h-2.7l-0.7,2.2c-1,0.2-1.9,0.5-2.7,0.9l-1.8-1.4l-2.2,1.6l0.8,2.2c-0.7,0.7-1.2,1.5-1.7,2.3
		l-2.3-0.1l-0.8,2.6l1.9,1.3c-0.1,0.5-0.1,0.9-0.1,1.4c0,0.5,0,1,0.1,1.4l-1.9,1.3l0.8,2.6l2.3-0.1c0.5,0.8,1,1.6,1.7,2.3l-0.8,2.2
		l2.2,1.6l1.8-1.4c0.9,0.4,1.8,0.7,2.7,0.9l0.7,2.2h2.7l0.7-2.2c1-0.2,1.9-0.5,2.7-0.9l1.8,1.4l2.2-1.6l-0.8-2.2
		c0.7-0.7,1.2-1.5,1.7-2.3l2.3,0.1l0.8-2.6l-1.9-1.3C218.5,104.4,218.6,103.9,218.6,103.4z"/>
	
		<ellipse transform="matrix(0.2298 -0.9732 0.9732 0.2298 59.1571 281.5879)" class="st9" cx="207.5" cy="103.4" rx="8.8" ry="8.8"/>
	<circle class="st9" cx="207.5" cy="103.4" r="7"/>
</g>
<g>
	<path class="st11" d="M257.8,278.4c0-0.5,0-1-0.1-1.4l1.9-1.3l-0.8-2.6l-2.3,0.1c-0.5-0.8-1-1.6-1.7-2.3l0.8-2.2l-2.2-1.6l-1.8,1.4
		c-0.9-0.4-1.8-0.7-2.7-0.9l-0.7-2.2h-2.7l-0.7,2.2c-1,0.2-1.9,0.5-2.7,0.9l-1.8-1.4l-2.2,1.6l0.8,2.2c-0.7,0.7-1.2,1.5-1.7,2.3
		l-2.3-0.1l-0.8,2.6l1.9,1.3c-0.1,0.5-0.1,0.9-0.1,1.4c0,0.5,0,1,0.1,1.4l-1.9,1.3l0.8,2.6l2.3-0.1c0.5,0.8,1,1.6,1.7,2.3l-0.8,2.2
		l2.2,1.6l1.8-1.4c0.9,0.4,1.8,0.7,2.7,0.9l0.7,2.2h2.7l0.7-2.2c1-0.2,1.9-0.5,2.7-0.9l1.8,1.4l2.2-1.6l-0.8-2.2
		c0.7-0.7,1.2-1.5,1.7-2.3l2.3,0.1l0.8-2.6l-1.9-1.3C257.8,279.4,257.8,278.9,257.8,278.4z"/>
	
		<ellipse transform="matrix(0.2298 -0.9732 0.9732 0.2298 -80.935 454.6129)" class="st11" cx="246.7" cy="278.4" rx="8.8" ry="8.8"/>
	<circle class="st11" cx="246.7" cy="278.4" r="7"/>
</g>
<g class="st4">
	<polygon class="st9" points="211.8,96.2 211.8,88.9 219.3,96.2 	"/>
	<path class="st9" d="M219.3,99.4v-3.2l-7.5-7.4h-12.9c-0.4,0-0.7,0.3-0.7,0.7v26.8c0,0.4,0.3,0.7,0.7,0.7h19.8
		c0.4,0,0.7-0.3,0.7-0.7v-3.2"/>
	<g class="st10">
		<line class="st11" x1="212" y1="112.3" x2="201.1" y2="112.3"/>
		<line class="st11" x1="209.5" y1="109.2" x2="201.1" y2="109.2"/>
		<line class="st11" x1="209" y1="106.1" x2="201.1" y2="106.1"/>
		<line class="st11" x1="209.8" y1="103" x2="201.1" y2="103"/>
		<line class="st11" x1="212.8" y1="99.8" x2="201.1" y2="99.8"/>
		<line class="st11" x1="210" y1="96.7" x2="201.1" y2="96.7"/>
		<line class="st11" x1="209.7" y1="93.6" x2="201.1" y2="93.6"/>
	</g>
	
		<ellipse transform="matrix(0.1602 -0.9871 0.9871 0.1602 76.8603 302.9799)" class="st9" cx="216.5" cy="106.3" rx="7.5" ry="7.5"/>
	<polygon class="st9" points="216.5,101.2 217.8,104.4 221.3,104.7 218.7,107 219.4,110.3 216.5,108.6 213.5,110.3 214.3,107 
		211.7,104.7 215.1,104.4 	"/>
</g>
<g>
	<path class="st11" d="M360.7,260.8c0,10.9-7.8,19.7-14.4,19.7c-5.6,0-14.4-8.8-14.4-19.7c0-10.9,6.4-16.3,14.4-16.3
		S360.7,249.9,360.7,260.8z"/>
	<path class="st11" d="M354.6,279.6c-3.9,5.1-7.9,4.4-7.9,4.4s-4.7,0.7-8.6-4.4c-9.2,4.5-15.8,14.6-15.8,14.6s10.8,4.3,24,4.3
		c13.3,0,24-4.3,24-4.3S363.8,284,354.6,279.6z"/>
</g>
<g>
	<polygon class="st11" points="379.9,263.7 379.9,256.4 387.4,263.7 	"/>
	<path class="st11" d="M387.4,266.9v-3.2l-7.5-7.4H367c-0.4,0-0.7,0.3-0.7,0.7v26.8c0,0.4,0.3,0.7,0.7,0.7h19.8
		c0.4,0,0.7-0.3,0.7-0.7v-3.2"/>
	<g>
		<line class="st11" x1="380.2" y1="279.8" x2="369.3" y2="279.8"/>
		<line class="st11" x1="377.6" y1="276.7" x2="369.3" y2="276.7"/>
		<line class="st11" x1="377.1" y1="273.6" x2="369.3" y2="273.6"/>
		<line class="st11" x1="377.9" y1="270.5" x2="369.3" y2="270.5"/>
		<line class="st11" x1="380.9" y1="267.3" x2="369.3" y2="267.3"/>
		<line class="st11" x1="378.1" y1="264.2" x2="369.3" y2="264.2"/>
		<line class="st11" x1="377.8" y1="261.1" x2="369.3" y2="261.1"/>
	</g>
	
		<ellipse transform="matrix(0.1602 -0.9871 0.9871 0.1602 52.7197 609.5955)" class="st11" cx="384.6" cy="273.8" rx="7.5" ry="7.5"/>
	<polygon class="st11" points="384.6,268.7 386,271.9 389.4,272.2 386.8,274.5 387.6,277.8 384.6,276.1 381.6,277.8 382.4,274.5 
		379.8,272.2 383.2,271.9 	"/>
</g>
<polygon class="st11" points="286.3,327.8 286.3,320.5 293.9,327.8 "/>
<path class="st11" d="M293.9,331v-3.2l-7.5-7.4h-12.9c-0.4,0-0.7,0.3-0.7,0.7V348c0,0.4,0.3,0.7,0.7,0.7h19.8c0.4,0,0.7-0.3,0.7-0.7
	v-3.2"/>
<g>
	<line class="st11" x1="286.6" y1="343.9" x2="275.7" y2="343.9"/>
	<line class="st11" x1="284.1" y1="340.8" x2="275.7" y2="340.8"/>
	<line class="st11" x1="283.6" y1="337.7" x2="275.7" y2="337.7"/>
	<line class="st11" x1="284.4" y1="334.6" x2="275.7" y2="334.6"/>
	<line class="st11" x1="287.3" y1="331.5" x2="275.7" y2="331.5"/>
	<line class="st11" x1="284.6" y1="328.4" x2="275.7" y2="328.4"/>
	<line class="st11" x1="284.2" y1="325.2" x2="275.7" y2="325.2"/>
</g>
<ellipse transform="matrix(0.1602 -0.9871 0.9871 0.1602 -89.1548 571.1093)" class="st11" cx="291.1" cy="337.9" rx="7.5" ry="7.5"/>
<polygon class="st11" points="291.1,332.8 292.4,336 295.8,336.3 293.3,338.6 294,341.9 291.1,340.2 288.1,341.9 288.9,338.6 
	286.3,336.3 289.7,336 "/>
<g class="st4">
	<path class="st5" d="M186,59.1c0,0-9.6,9.2-36.6,9.2c0,0,0,19.9,0,40.1s36.6,40.5,36.6,40.5s36.6-20.2,36.6-40.5s0-40.1,0-40.1
		C195.6,68.3,186,59.1,186,59.1z"/>
	<polygon class="st9" points="186,86.5 190.6,97.2 202.2,98.2 193.4,105.9 196,117.2 186,111.3 176,117.2 178.6,105.9 169.8,98.2 
		181.4,97.2 	"/>
</g>
<g>
	<path class="st13" d="M186,360.2c0,0-9.6,9.2-36.6,9.2c0,0,0,19.9,0,40.1S186,450,186,450s36.6-20.2,36.6-40.5s0-40.1,0-40.1
		C195.6,369.4,186,360.2,186,360.2z"/>
	<polygon class="st11" points="186,387.6 190.6,398.2 202.2,399.3 193.4,407 196,418.3 186,412.4 176,418.3 178.6,407 169.8,399.3 
		181.4,398.2 	"/>
</g>
<polygon class="st11" points="384.6,387.6 389.2,398.2 400.8,399.3 392,407 394.6,418.3 384.6,412.4 374.6,418.3 377.2,407 
	368.4,399.3 380,398.2 "/>
<polygon class="st14" points="186,61.3 198.7,91 230.9,93.9 206.6,115.2 213.7,146.7 186,130.2 158.3,146.7 165.4,115.2 141.1,93.9 
	173.3,91 "/>
<g class="st4">
	<rect x="150.1" y="137.9" class="st5" width="71.9" height="9.9"/>
	<g class="st10">
		<rect x="159.7" y="94.4" class="st13" width="10.5" height="38.6"/>
		<rect x="180.7" y="94.4" class="st13" width="10.5" height="38.6"/>
		<rect x="201.8" y="94.4" class="st13" width="10.5" height="38.6"/>
	</g>
	<polygon class="st5" points="145.9,89 226.1,89 226.1,82.6 186,60.2 145.9,82.6 	"/>
	<polygon class="st5" points="151.4,84.6 186,65.2 220.6,84.6 	"/>
</g>
<g>
	<rect x="414.5" y="241.9" class="st13" width="71.9" height="9.9"/>
	<g>
		<rect x="424.2" y="198.4" class="st13" width="10.5" height="38.6"/>
		<rect x="445.2" y="198.4" class="st13" width="10.5" height="38.6"/>
		<rect x="466.3" y="198.4" class="st13" width="10.5" height="38.6"/>
	</g>
	<polygon class="st13" points="410.4,193 490.5,193 490.5,186.6 450.5,164.2 410.4,186.6 	"/>
	<polygon class="st13" points="415.9,188.6 450.5,169.2 485.1,188.6 	"/>
</g>
<g class="st4">
	<path class="st5" d="M175.8,87.8c1.2-4.4-0.1-9.1-3.3-12.4l-1.9-1.9c-3.2-3.2-8-4.5-12.4-3.3l-1.1,0.3l9.9,9.9l-11,11l-9.9-9.9
		l-0.3,1.1c-1.2,4.4,0.1,9.1,3.3,12.4l1.9,1.9c3.2,3.2,8,4.5,12.4,3.3l2.6-0.7c0.8-0.2,1.5-0.5,2.3-0.9
		c8.4,10.2,17.1,18.9,27.3,27.3c-0.3,0.7-0.7,1.5-0.9,2.3l-0.7,2.6c-1.2,4.4,0.1,9.1,3.3,12.4l1.9,1.9c3.2,3.2,8,4.5,12.4,3.3
		l1.1-0.3l-9.9-9.9l11-11l9.9,9.9l0.3-1.1c1.2-4.4-0.1-9.1-3.3-12.4l-1.9-1.9c-3.2-3.2-8-4.5-12.4-3.3l-2.6,0.7
		c-0.8,0.2-1.5,0.5-2.3,0.9c-8.4-10.2-17.1-18.9-27.3-27.3c0.3-0.7,0.7-1.5,0.9-2.3L175.8,87.8z"/>
	<path class="st5" d="M220.6,82.3l-13.7-13.7l3.4-3.4l-6.1-6.1l-16.1,16.1l6.1,6.1l3.4-3.4l13.7,13.7c11.7,11.7,8.8,21.9,8.8,21.9
		C228.4,105.3,229.1,90.9,220.6,82.3z"/>
	<line class="st5" x1="204.4" y1="84.7" x2="185.8" y2="102.9"/>
	<polyline class="st5" points="178.5,110 150.7,137.1 157.7,144.2 184.8,116.4 	"/>
	<line class="st5" x1="191.9" y1="109.1" x2="210.1" y2="90.4"/>
	<polyline class="st5" points="219.3,81 222.7,77.6 217.3,72.2 213.8,75.6 	"/>
</g>
<g class="st4">
	<path class="st9" d="M168.5,59.9c-1.1,0-2.1,0.9-2.1,2v60.7c0,1.1,0.9,2,2.1,2H227c1.1,0,2.1-0.9,2.1-2V62.1c0-1.2-1-2.2-2.2-2.2
		H168.5z"/>
	<path class="st9" d="M166.4,67.7h-5.8c-1.1,0-2.1,0.9-2.1,2v60.7c0,1.1,0.9,2,2.1,2h58.6c1.1,0,2.1-0.9,2.1-2v-5.8"/>
	<path class="st9" d="M158.6,75.5h-5.8c-1.1,0-2.1,0.9-2.1,2v60.7c0,1.1,0.9,2,2.1,2h58.6c1.1,0,2.1-0.9,2.1-2v-5.8"/>
	<path class="st9" d="M150.7,83.4H145c-1.1,0-2.1,0.9-2.1,2v60.7c0,1.1,0.9,2,2.1,2h58.6c1.1,0,2.1-0.9,2.1-2v-5.8"/>
</g>
<g>
	<circle class="st13" cx="200.2" cy="101.2" r="16.2"/>
	<circle class="st13" cx="200.2" cy="101.2" r="11.9"/>
	<polyline class="st13" points="209.9,114.4 215.1,119.6 218.6,116.2 213.4,111 	"/>
	
		<rect x="218.1" y="115.7" transform="matrix(0.7071 -0.7071 0.7071 0.7071 -21.9938 193.0643)" class="st13" width="7.9" height="14.7"/>
	<line class="st13" x1="219" y1="125.6" x2="224.4" y2="120.3"/>
	<line class="st13" x1="216.6" y1="123.2" x2="221.9" y2="117.8"/>
</g>
</svg>
