<?xml version="1.0" encoding="utf-8"?>
<!-- Generator: Adobe Illustrator 24.0.1, SVG Export Plug-In . SVG Version: 6.00 Build 0)  -->
<svg version="1.1" id="Layer_1" xmlns="http://www.w3.org/2000/svg" xmlns:xlink="http://www.w3.org/1999/xlink" x="0px" y="0px"
	 viewBox="0 0 372 208" style="enable-background:new 0 0 372 208;" xml:space="preserve">
<style type="text/css">
	.st0{fill:#FFFFFF;}
	.st1{fill:#2F499F;}
	.st2{display:none;fill:none;stroke:#2F499F;stroke-miterlimit:10;}
	.st3{fill:none;stroke:#2F499F;stroke-width:2;stroke-miterlimit:10;}
	.st4{display:none;}
	.st5{display:inline;fill:none;stroke:#2F499F;stroke-miterlimit:10;}
	.st6{fill:none;stroke:#304B9E;stroke-linecap:round;stroke-linejoin:round;stroke-miterlimit:10;}
	.st7{display:none;fill:none;stroke:#304B9E;stroke-linecap:round;stroke-linejoin:round;stroke-miterlimit:10;}
	.st8{display:inline;fill:none;stroke:#304B9E;stroke-linecap:round;stroke-linejoin:round;stroke-miterlimit:10;}
	.st9{fill:none;stroke:#2F499F;stroke-miterlimit:10;}
	.st10{display:inline;fill:none;stroke:#2F499F;stroke-linecap:round;stroke-linejoin:round;stroke-miterlimit:10;}
	.st11{display:inline;}
	.st12{fill:none;stroke:#2F499F;stroke-linecap:round;stroke-linejoin:round;stroke-miterlimit:10;}
</style>
<rect class="st0" width="372" height="208"/>
<path class="st1" d="M-190.1,115.8c2,0,3.7,0,5,0.1h10.4c0.8,0,1.4,2.2,1.4,3.1c0,0.9-0.6,1.6-1.4,1.6h-9.7c-0.1,0-0.2,0-0.2,0
	c-2.7,0.5-4.6,2.1-4.6,4.9c0,2.1,1.1,3.2,2.8,4.2c0.1,0.1,0.2,0.1,0.3,0.1c0.3,0.1,1.3,0.4,2.8,0.8l1,0.3c1.2,0.3,2.4,0.7,3.6,1
	l0.3,0.1c4,1.1,8.9,2.5,9.7,2.7c0.1,0,0.2,0,0.3,0c0.2,0,0.3,0,0.5,0c0.5,0,1-0.1,1.4-0.2c0.2,0,0.3-0.1,0.4-0.2l15.3-10.6
	c0,0,0,0,0.1,0l2.7-2.1c0,0,0,0,0.1,0c0.1-0.1,0.2-0.1,0.3-0.2c0.2-0.1,0.3-0.1,0.4-0.2c0.1,0,0.2-0.1,0.3-0.1c0.2,0,0.3,0,0.4,0
	c0.2,0,0.3,0,0.5,0.1c0.1,0,0.1,0,0.2,0c1.6,0.1,2.8,1.6,2.8,3.3c0,0.9-0.3,1.7-0.9,2.4c0,0,0,0,0,0c-0.2,0.2-0.5,0.4-0.7,0.6
	c-0.1,0-0.1,0.1-0.2,0.1l-1.1,0.8l-23.9,18.4l-0.1,0c-0.5,0.2-0.8,0.2-1.2,0.2c-0.2,0-0.5,0-0.7-0.1l-0.1,0
	c-10.9-3-25.5-6.9-32.7-8.8l-0.5-0.2c0,0-0.1,0-0.1,0c-2.2-0.6-4-1-5.5-1.1c0-0.1,0-0.1,0-0.2l0-1.4v-9.8c4-0.4,6.8-2.7,9.5-4.8
	c0.6-0.5,1.2-1,1.9-1.5C-197,117.5-194.1,115.8-190.1,115.8 M-190.1,114.1c-4.6,0-7.7,1.8-10.3,3.8c-0.7,0.5-1.4,1.1-1.9,1.5l-0.1,0
	c-2.7,2.1-5.2,4.1-8.6,4.4l-1.5,0.2v1.5v9.8l0,1.4l0,0.1l0,0.1v1.4l1.5,0.2c1.3,0.1,3.1,0.5,5.2,1.1l0,0l0.5,0.2l0.1,0l0.1,0
	c7.3,1.9,21.9,5.9,32.7,8.8l0,0l0.1,0l0.1,0c0.4,0.1,0.7,0.1,1,0.1c0.6,0,1.2-0.1,1.8-0.3l0,0l0,0l0.1,0l0.2-0.1l0.2-0.1l23.9-18.4
	l1-0.8l0,0c0.4-0.2,0.7-0.5,1-0.8c0.1-0.1,0.1-0.1,0.2-0.2c0.9-0.9,1.3-2.2,1.3-3.4c0-2.6-1.9-4.7-4.3-5l0,0
	c-0.3-0.1-0.5-0.1-0.8-0.1c-0.2,0-0.4,0-0.6,0.1l-0.1,0l-0.1,0l-0.1,0c-0.1,0-0.2,0.1-0.4,0.1c-0.3,0.1-0.5,0.2-0.7,0.3l0,0l0,0
	c-0.1,0-0.1,0.1-0.2,0.1l-0.1,0l-0.2,0.2l-2.6,2l0,0l0,0L-167,133c-0.3,0.1-0.6,0.1-0.9,0.1c-0.1,0-0.3,0-0.4,0
	c-0.8-0.2-4-1.1-9.7-2.7l-0.3-0.1c-1.3-0.4-2.5-0.7-3.7-1l-1-0.3l-1.7-0.5c-0.5-0.2-0.9-0.3-1-0.3c-1.5-0.9-2-1.6-2-2.8
	c0-1.8,1.1-2.9,3.2-3.3l9.7,0c1.7,0,3-1.4,3-3.2c0-0.7-0.6-4.7-3-4.7H-185C-186.3,114.2-187.9,114.1-190.1,114.1L-190.1,114.1z"/>
<rect x="141.1" y="59.1" class="st2" width="89.8" height="89.8"/>
<g>
	<path class="st1" d="M-153.9,100.4c0.1,0.1,0.2,0.2,0.2,0.4c0,0.2,0,0.4,0,0.7c0,0.3-0.1,0.3-0.4,0.4c-0.2,0-0.5,0-0.7,0
		c-0.3,0-0.7,0-1,0c0,0,0,0,0,0c0,0-0.1,0-0.1,0c0,0,0,0.1,0,0.1c0.2,0.3,0.4,0.6,0.4,1c0,0.1,0.1,0.1,0.1,0.1c0,0,0,0,0,0
		c0.2,0,0.4,0,0.6,0c0.2,0,0.4,0,0.6,0c0.3,0,0.3,0.1,0.3,0.3c0,0.2,0,0.5,0,0.7c0,0.2-0.1,0.3-0.3,0.3c-0.2,0-0.4,0-0.6,0
		c-0.2,0-0.4,0-0.6,0c0,0,0,0,0,0c-0.1,0-0.1,0-0.1,0.1c-0.2,1.2-1,2-2.2,2.5c-0.4,0.1-0.8,0.2-1.2,0.3c0.2,0.2,0.4,0.4,0.6,0.6
		c1.1,1.2,2.2,2.5,3.2,3.8c0.1,0.1,0.1,0.2,0,0.3c-0.1,0.1-0.1,0.2-0.3,0.2c0,0,0,0,0,0c-0.3,0-0.5,0-0.8,0c-0.2,0-0.5,0-0.7,0
		c0,0,0,0,0,0c-0.1,0-0.2-0.1-0.3-0.2c-0.7-0.9-1.5-1.8-2.2-2.6c-0.6-0.7-1.2-1.3-1.8-2c-0.1-0.1-0.1-0.2-0.1-0.3c0-0.3,0-0.6,0-0.9
		c0-0.2,0.1-0.3,0.3-0.3c0.1,0,0.1,0,0.2,0c0.2,0,0.4,0,0.6,0c0.2,0,0.4,0,0.7,0c0.6-0.1,1.1-0.2,1.5-0.5c0.3-0.2,0.4-0.4,0.5-0.8
		c0-0.1,0-0.1-0.1-0.1c0,0,0,0,0,0c-0.6,0-1.2,0-1.9,0c-0.4,0-0.9,0-1.3,0c0,0-0.1,0-0.1,0c0,0-0.1,0-0.1,0c-0.2,0-0.3-0.1-0.3-0.3
		c0-0.2,0-0.5,0-0.7c0-0.3,0.1-0.3,0.3-0.3c0.5,0,1,0,1.6,0c0.5,0,1.1,0,1.6,0c0,0,0,0,0.1,0c0,0,0.1,0,0.1,0
		c-0.1-0.3-0.3-0.5-0.6-0.6c-0.4-0.3-0.9-0.3-1.4-0.3c-0.2,0-0.4,0-0.6,0c-0.2,0-0.4,0-0.6,0c0,0-0.1,0-0.1,0
		c-0.2,0-0.3-0.1-0.4-0.3c0-0.3,0-0.6,0-1c0-0.2,0.1-0.3,0.2-0.3C-158.6,100.4-156.3,100.4-153.9,100.4 M-153.9,99.3h-7.1
		c-0.2,0-0.3,0-0.5,0.1c-0.5,0.2-0.9,0.8-0.9,1.4c0,0.2,0,0.4,0,0.6l0,0.4c0,0.3,0.1,0.6,0.2,0.8c-0.1,0.2-0.2,0.5-0.2,0.8
		c0,0.2,0,0.5,0,0.7c0,0.4,0.1,0.8,0.4,1c-0.2,0.3-0.4,0.6-0.4,1l0,0.3c0,0.2,0,0.4,0,0.5c0,0.4,0.1,0.8,0.4,1.1
		c0.5,0.6,1.1,1.2,1.8,2c0.7,0.8,1.5,1.7,2.2,2.6c0.3,0.4,0.7,0.6,1.2,0.6c0,0,0,0,0,0c0.2,0,0.5,0,0.7,0c0.2,0,0.5,0,0.7,0l0.1,0
		c0.6,0,1-0.3,1.3-0.8c0.2-0.5,0.2-1.1-0.2-1.5l0-0.1c-0.8-1-1.7-2.1-2.6-3.1c1.1-0.5,1.8-1.3,2.2-2.3l0.4,0l0.1,0
		c0.9,0,1.4-0.6,1.4-1.4c0-0.2,0-0.5,0-0.7c0-0.4-0.1-0.7-0.3-0.9c0.2-0.2,0.3-0.6,0.3-0.9l0-0.2c0-0.1,0-0.3,0-0.4
		c0-0.6-0.3-1.1-0.7-1.4C-153.5,99.4-153.7,99.3-153.9,99.3L-153.9,99.3z"/>
</g>
<circle class="st3" cx="-157.5" cy="106.3" r="13"/>
<g class="st4">
	<polygon class="st5" points="230.9,81.5 217.1,81.5 203.4,81.5 203.4,62.6 230.9,62.6 	"/>
	<polygon class="st5" points="218.7,66.4 215.6,66.4 215.6,70.5 211.5,70.5 211.5,73.6 215.6,73.6 215.6,77.6 218.7,77.6 
		218.7,73.6 222.7,73.6 222.7,70.5 218.7,70.5 	"/>
	<rect x="212.9" y="59.3" class="st5" width="8.2" height="3.4"/>
</g>
<g>
	<path class="st1" d="M-54.1,41.1c0.1,0.1,0.1,0.1,0,0.3c-2.6,2.6-5.2,5.2-7.8,7.8c-0.1,0.1-0.2,0.1-0.3,0c-1.2-1.3-2.5-2.5-3.8-3.8
		c-0.1-0.1-0.1-0.1,0-0.3c0.6-0.6,1.1-1.1,1.7-1.7c0,0,0.1-0.1,0.2-0.1c0,0.1,0,0.1,0.1,0.1c0.6,0.6,1.2,1.2,1.8,1.9
		c0.1,0.1,0.2,0.1,0.3,0c2-2,3.9-3.9,5.9-5.9c0.1-0.1,0.2-0.1,0.3,0C-55.2,40-54.7,40.6-54.1,41.1z"/>
	<path class="st1" d="M-49.3,39.6c0-2,0-4,0-5.9c0-0.2,0-0.2-0.2-0.2c-1.3,0.1-2.7,0-4-0.2c-2.6-0.3-5.1-1.2-7.1-3
		c-0.1-0.1-0.2-0.1-0.3,0c-0.3,0.3-0.7,0.5-1,0.8c-1.9,1.3-4.1,1.9-6.3,2.2c-1.2,0.2-2.5,0.2-3.7,0.1c-0.2,0-0.2,0-0.2,0.2
		c0,3.8,0,7.5,0,11.3c0,0.7,0.1,1.5,0.3,2.2c0.4,1.6,1.2,3,2.1,4.3c1.7,2.3,3.8,4.1,6.2,5.6c0.8,0.5,1.7,1,2.7,1.3
		c0.1,0,0.2,0,0.3,0c0.4-0.1,0.8-0.3,1.1-0.5c2-1,3.7-2.3,5.3-3.8c1.4-1.4,2.7-2.9,3.6-4.7c0.7-1.3,1.1-2.7,1.1-4.1
		C-49.3,43.4-49.3,41.5-49.3,39.6L-49.3,39.6z M-51.7,45.1c0,1.2-0.4,2.4-1,3.5c-0.8,1.5-1.9,2.7-3.1,3.8c-1.4,1.3-3,2.5-4.7,3.4
		c-0.2,0.1-0.4,0.1-0.5,0c-2.2-1.2-4.1-2.7-5.8-4.5c-1-1.1-1.9-2.4-2.5-3.8c-0.3-0.8-0.5-1.7-0.5-2.6c0-1.4,0-2.8,0-4.2
		c0-1.6,0-3.1,0-4.7c0-0.2,0-0.2,0.2-0.2c2.6-0.1,5.1-0.6,7.5-1.8c0.4-0.2,0.8-0.4,1.2-0.7c0.1-0.1,0.2-0.1,0.3,0
		c1.6,1,3.4,1.7,5.2,2.1c1.2,0.2,2.3,0.4,3.5,0.4c0.2,0,0.2,0.1,0.2,0.2c0,2,0,4.1,0,6.1C-51.7,43.1-51.7,44.1-51.7,45.1z"/>
	<path class="st1" d="M-54.1,41.4c-2.6,2.6-5.2,5.2-7.8,7.8c-0.1,0.1-0.2,0.1-0.3,0c-1.2-1.3-2.5-2.5-3.8-3.8
		c-0.1-0.1-0.1-0.1,0-0.3c0.6-0.6,1.1-1.1,1.7-1.7c0,0,0.1-0.1,0.2-0.1c0,0.1,0,0.1,0.1,0.1c0.6,0.6,1.2,1.2,1.8,1.9
		c0.1,0.1,0.2,0.1,0.3,0c2-2,3.9-3.9,5.9-5.9c0.1-0.1,0.2-0.1,0.3,0c0.5,0.6,1.1,1.1,1.7,1.7C-54,41.2-54,41.3-54.1,41.4z"/>
	<path class="st1" d="M-54.1,41.4c-2.6,2.6-5.2,5.2-7.8,7.8c-0.1,0.1-0.2,0.1-0.3,0c-1.2-1.3-2.5-2.5-3.8-3.8
		c-0.1-0.1-0.1-0.1,0-0.3c0.6-0.6,1.1-1.1,1.7-1.7c0,0,0.1-0.1,0.2-0.1c0,0.1,0,0.1,0.1,0.1c0.6,0.6,1.2,1.2,1.8,1.9
		c0.1,0.1,0.2,0.1,0.3,0c2-2,3.9-3.9,5.9-5.9c0.1-0.1,0.2-0.1,0.3,0c0.5,0.6,1.1,1.1,1.7,1.7C-54,41.2-54,41.3-54.1,41.4z"/>
</g>
<path class="st6" d="M-52.1,86.8c0.3,0.1,0.3,0.4,0.3,0.7c0,0.4,0,0.8,0,1.2c0,0.5-0.2,0.6-0.6,0.6c-1.1,0-2.1,0-3.2,0
	c0,0-0.1,0-0.1,0c0,0.1,0,0.1,0,0.1c0.4,0.5,0.7,1.2,0.8,1.8c0,0.2,0.1,0.2,0.3,0.2c0.7,0,1.5,0,2.2,0c0.5,0,0.6,0.2,0.6,0.6
	c0,0.4,0,0.9,0,1.3c0,0.4-0.2,0.6-0.6,0.6c-0.7,0-1.5,0-2.2,0c-0.1,0-0.2,0-0.2,0.2c-0.4,2.2-1.8,3.7-3.9,4.5
	c-0.7,0.3-1.4,0.4-2.2,0.5c0.4,0.4,0.7,0.8,1.1,1.2c2,2.2,3.9,4.5,5.8,6.8c0.1,0.2,0.2,0.3,0.1,0.5c-0.1,0.2-0.3,0.3-0.5,0.3
	c-0.9,0-1.8,0-2.7,0c-0.3,0-0.5-0.1-0.6-0.3c-1.3-1.6-2.7-3.2-4-4.8c-1.1-1.2-2.1-2.4-3.2-3.6c-0.2-0.2-0.3-0.4-0.2-0.6
	c0-0.5,0-1.1,0-1.6c0-0.4,0.2-0.6,0.6-0.6c0.8,0,1.7,0,2.5,0c1-0.1,2-0.3,2.8-0.9c0.5-0.4,0.8-0.8,1-1.4c0.1-0.2,0-0.2-0.1-0.2
	c-1.9,0-3.8,0-5.7,0c-0.1,0-0.3,0-0.4,0c-0.4,0-0.6-0.2-0.6-0.6c0-0.4,0-0.9,0-1.3c0-0.5,0.2-0.6,0.6-0.6c1.9,0,3.9,0,5.8,0
	c0.1,0,0.1,0,0.2,0c-0.2-0.5-0.6-0.8-1-1.1c-0.8-0.5-1.7-0.6-2.6-0.6c-0.8,0-1.6,0-2.4,0c-0.4,0-0.6-0.2-0.6-0.6c0-0.6,0-1.2,0-1.8
	c0-0.3,0.1-0.5,0.3-0.6C-60.7,86.8-56.4,86.8-52.1,86.8z"/>
<circle class="st7" cx="186" cy="95.5" r="14.5"/>
<g class="st4">
	<path class="st5" d="M157.6,94.1c0-15.7,12.7-28.4,28.4-28.4s28.4,12.7,28.4,28.4s-12.7,28.4-28.4,28.4"/>
	<polygon class="st5" points="152.3,94.1 157.6,103.2 162.9,94.1 	"/>
</g>
<g class="st4">
	<path class="st8" d="M159.4,125.4c0,0,12.5-11,25.4-3.5c0.7,0.4,1.4,0.6,2.2,0.6h8.4c1.3,0,2.6,0.3,3.7,1c1.6,1,3.5,2.7,3.1,4.9
		c-0.3,1.5-1.6,2.5-3.2,2.5l-18.2,0"/>
	<path class="st8" d="M170.7,141.5l1.8-1.2c0.9-0.6,1.9-0.9,2.9-0.9h23.3c1,0,1.9-0.3,2.8-0.8l11.7-7.2c0.5-0.3,1-0.8,1.4-1.3
		l7.1-9.6c0.5-0.7,0.4-1.8-0.3-2.3c-0.9-0.6-2.4-1.2-5-0.6c-1.2,0.2-2.3,0.8-3.1,1.7l-3,3c-0.7,0.7-1.5,1.2-2.3,1.6l-5.7,2.7"/>
	<path class="st8" d="M150.1,127.8l5.3-3.9c0.9-0.6,2.1-0.4,2.7,0.4l13.1,18c0.6,0.9,0.4,2.1-0.4,2.7l-5.3,3.9"/>
</g>
<path class="st7" d="M190.7,87.6c0.2,0.1,0.2,0.3,0.2,0.5c0,0.3,0,0.6,0,0.9c0,0.3-0.1,0.5-0.5,0.5c-0.8,0-1.6,0-2.3,0
	c0,0-0.1,0-0.1,0c0,0.1,0,0.1,0,0.1c0.3,0.4,0.5,0.9,0.6,1.3c0,0.1,0.1,0.2,0.2,0.2c0.5,0,1.1,0,1.6,0c0.3,0,0.5,0.1,0.5,0.5
	c0,0.3,0,0.6,0,1c0,0.3-0.1,0.4-0.4,0.4c-0.5,0-1.1,0-1.6,0c-0.1,0-0.2,0-0.2,0.1c-0.3,1.7-1.3,2.7-2.9,3.3c-0.5,0.2-1,0.3-1.6,0.4
	c0.3,0.3,0.5,0.6,0.8,0.9c1.5,1.6,2.9,3.4,4.3,5.1c0.1,0.1,0.1,0.3,0.1,0.4c-0.1,0.2-0.2,0.2-0.4,0.2c-0.7,0-1.3,0-2,0
	c-0.2,0-0.3-0.1-0.5-0.2c-1-1.2-2-2.4-3-3.5c-0.8-0.9-1.6-1.8-2.4-2.6c-0.1-0.1-0.2-0.3-0.2-0.5c0-0.4,0-0.8,0-1.2
	c0-0.3,0.1-0.4,0.5-0.5c0.6,0,1.2,0,1.8,0c0.7-0.1,1.4-0.2,2-0.7c0.3-0.3,0.6-0.6,0.7-1c0-0.1,0-0.1-0.1-0.1c-1.4,0-2.8,0-4.2,0
	c-0.1,0-0.2,0-0.3,0c-0.3,0-0.4-0.1-0.4-0.4c0-0.3,0-0.6,0-0.9c0-0.3,0.1-0.5,0.5-0.5c1.4,0,2.9,0,4.3,0c0,0,0.1,0,0.2,0
	c-0.2-0.4-0.4-0.6-0.8-0.8c-0.6-0.3-1.3-0.4-1.9-0.5c-0.6,0-1.2,0-1.8,0c-0.3,0-0.5-0.1-0.5-0.5c0-0.4,0-0.9,0-1.3
	c0-0.2,0.1-0.4,0.3-0.4C184.4,87.6,187.6,87.6,190.7,87.6z"/>
<path class="st9" d="M421.7,59.1c0,0-2.7,2.6-10.3,2.6c0,0,0,5.6,0,11.3s10.3,11.4,10.3,11.4s10.3-5.7,10.3-11.4s0-11.3,0-11.3
	C424.5,61.7,421.7,59.1,421.7,59.1z"/>
<rect x="157.9" y="82.1" class="st2" width="56.1" height="26.6"/>
<g class="st4">
	<line class="st10" x1="151.6" y1="75" x2="159.5" y2="75"/>
	<line class="st10" x1="164.7" y1="75" x2="172.6" y2="75"/>
	<line class="st10" x1="177.9" y1="75" x2="185.8" y2="75"/>
	<line class="st10" x1="191" y1="75" x2="198.9" y2="75"/>
	<path class="st10" d="M204.2,75h0.8c1.9,0,3.5,1.6,3.5,3.5v43.6c0,1.9-1.6,3.5-3.5,3.5h-59.4c-1.9,0-3.5-1.6-3.5-3.5V78.6
		c0-1.9,1.6-3.5,3.5-3.5h0.8"/>
	<g class="st11">
		<rect x="146.3" y="66.9" class="st12" width="5.3" height="15.2"/>
		<rect x="159.5" y="66.9" class="st12" width="5.3" height="15.2"/>
		<rect x="172.6" y="66.9" class="st12" width="5.3" height="15.2"/>
		<rect x="185.8" y="66.9" class="st12" width="5.3" height="15.2"/>
		<rect x="198.9" y="66.9" class="st12" width="5.3" height="15.2"/>
	</g>
	<rect x="146.3" y="88.6" class="st10" width="9.9" height="9.9"/>
	<rect x="162.3" y="88.6" class="st10" width="9.9" height="9.9"/>
	<rect x="178.3" y="88.6" class="st10" width="9.9" height="9.9"/>
	<rect x="194.3" y="88.6" class="st10" width="9.9" height="9.9"/>
	<rect x="146.3" y="105" class="st10" width="9.9" height="9.9"/>
	<rect x="162.3" y="105" class="st10" width="9.9" height="9.9"/>
	<rect x="178.3" y="105" class="st10" width="9.9" height="9.9"/>
	<g class="st11">
		
			<ellipse transform="matrix(0.1602 -0.9871 0.9871 0.1602 56.6285 311.7345)" class="st12" cx="211.5" cy="122.6" rx="18.5" ry="18.5"/>
		<circle class="st12" cx="211.5" cy="122.6" r="15.3"/>
		<line class="st12" x1="211.5" y1="112.2" x2="211.5" y2="121.1"/>
		<line class="st12" x1="211.5" y1="107.3" x2="211.5" y2="110.3"/>
		<line class="st12" x1="196.2" y1="122.6" x2="199.3" y2="122.6"/>
		<line class="st12" x1="211.5" y1="137.9" x2="211.5" y2="134.8"/>
		<line class="st12" x1="226.8" y1="122.6" x2="223.8" y2="122.6"/>
		<line class="st12" x1="201.2" y1="112.3" x2="202.3" y2="113.4"/>
		<line class="st12" x1="201.2" y1="132.9" x2="202.3" y2="131.8"/>
		<line class="st12" x1="221.8" y1="132.9" x2="220.7" y2="131.8"/>
		<line class="st12" x1="221.8" y1="112.3" x2="220.7" y2="113.4"/>
		<line class="st12" x1="218.3" y1="129.2" x2="212.6" y2="123.6"/>
		<circle class="st12" cx="211.5" cy="122.6" r="1.5"/>
	</g>
</g>
<g class="st4">
	<g class="st11">
		<path class="st12" d="M197.8,88.2c0,16.1-11.5,29.1-21.2,29.1c-8.3,0-21.2-13-21.2-29.1s9.5-24.1,21.2-24.1S197.8,72.1,197.8,88.2
			z"/>
		<path class="st12" d="M188.8,116c-5.7,7.6-11.7,6.5-11.7,6.5s-7,1.1-12.7-6.5c-13.6,6.6-23.3,21.5-23.3,21.5s15.9,6.4,35.4,6.4
			c19.6,0,35.4-6.4,35.4-6.4S202.3,122.5,188.8,116z"/>
	</g>
	<g class="st11">
		<path class="st12" d="M225.4,93.2c0,6.2-4.4,11.2-8.2,11.2c-3.2,0-8.2-5-8.2-11.2s3.7-9.3,8.2-9.3S225.4,87,225.4,93.2z"/>
		<path class="st12" d="M221.9,103.9c-2.2,2.9-4.5,2.5-4.5,2.5s-2.7,0.4-4.9-2.5c-5.2,2.5-9,8.3-9,8.3s6.1,2.4,13.6,2.4
			s13.6-2.4,13.6-2.4S227.2,106.4,221.9,103.9z"/>
	</g>
</g>
<polyline class="st2" points="191.4,115.6 198.1,122.5 215.2,105.3 "/>
<g class="st4">
	<polygon class="st10" points="188.3,82.5 188.3,59.1 212.3,82.5 	"/>
	<path class="st10" d="M212.3,92.7V82.5l-23.9-23.4h-41.2c-1.2,0-2.2,1-2.2,2.2v85.4c0,1.2,1,2.2,2.2,2.2H210c1.2,0,2.2-1,2.2-2.2
		v-10"/>
	<g class="st11">
		<line class="st12" x1="189.1" y1="133.7" x2="154.5" y2="133.7"/>
		<line class="st12" x1="181" y1="123.8" x2="154.5" y2="123.8"/>
		<line class="st12" x1="179.6" y1="113.9" x2="154.5" y2="113.9"/>
		<line class="st12" x1="182.1" y1="104" x2="154.5" y2="104"/>
		<line class="st12" x1="191.5" y1="94.1" x2="154.5" y2="94.1"/>
		<line class="st12" x1="182.7" y1="84.2" x2="154.5" y2="84.2"/>
		<line class="st12" x1="181.6" y1="74.3" x2="154.5" y2="74.3"/>
	</g>
	
		<ellipse transform="matrix(0.1602 -0.9871 0.9871 0.1602 57.5431 296.9868)" class="st10" cx="203.3" cy="114.7" rx="23.8" ry="23.8"/>
	<polygon class="st10" points="203.3,99.4 207.3,108.6 217.2,109.5 209.7,116.1 211.9,125.8 203.3,120.7 194.7,125.8 196.9,116.1 
		189.4,109.5 199.4,108.6 	"/>
</g>
<g class="st4">
	<circle class="st10" cx="170.6" cy="80.7" r="5.5"/>
	<path class="st10" d="M158.4,99c0-4.8,2.8-8.9,6.8-10.9c1.6,0.9,3.4,1.4,5.4,1.4c1.9,0,3.8-0.5,5.4-1.4c4,2,6.8,6.1,6.8,10.9"/>
	
		<ellipse transform="matrix(0.9228 -0.3853 0.3853 0.9228 -30.9678 74.5726)" class="st10" cx="170.6" cy="114.6" rx="5.5" ry="5.5"/>
	<path class="st10" d="M158.4,132.8c0-4.8,2.8-8.9,6.8-10.9c1.6,0.9,3.4,1.4,5.4,1.4c1.9,0,3.8-0.5,5.4-1.4c4,2,6.8,6.1,6.8,10.9"/>
	<circle class="st10" cx="201.4" cy="80.7" r="5.5"/>
	<path class="st10" d="M189.2,99c0-4.8,2.8-8.9,6.8-10.9c1.6,0.9,3.4,1.4,5.4,1.4s3.8-0.5,5.4-1.4c4,2,6.8,6.1,6.8,10.9"/>
	
		<ellipse transform="matrix(0.2773 -0.9608 0.9608 0.2773 35.4831 276.2982)" class="st10" cx="201.4" cy="114.6" rx="5.5" ry="5.5"/>
	<path class="st10" d="M189.2,132.8c0-4.8,2.8-8.9,6.8-10.9c1.6,0.9,3.4,1.4,5.4,1.4s3.8-0.5,5.4-1.4c4,2,6.8,6.1,6.8,10.9"/>
	<g class="st11">
		<polyline class="st12" points="213.6,132.8 230.9,132.8 224.3,99 213.6,99 189.2,99 182.8,99 158.4,99 147.4,99 141.1,132.8 
			158.4,132.8 		"/>
		<line class="st12" x1="189.2" y1="132.8" x2="182.8" y2="132.8"/>
	</g>
</g>
<g class="st4">
	<path class="st10" d="M160.4,122.7c0-3.6-2.9-6.5-6.5-6.5c-3.6,0-6.5,2.9-6.5,6.5c0,3.6,2.9,6.5,6.5,6.5
		C157.4,129.2,160.4,126.3,160.4,122.7z"/>
	<path class="st10" d="M166.6,140.5c0,1.2-0.2,2.3-0.5,3.4h-24.7c-0.3-1.1-0.5-2.2-0.5-3.4c0-4.6,2.4-8.6,6-10.8
		c1.7,1.9,4.1,3.1,6.8,3.1c2.7,0,5.1-1.2,6.8-3.1C164.2,131.9,166.6,135.9,166.6,140.5z"/>
	<path class="st10" d="M192.5,70.7c0-3.6-2.9-6.5-6.5-6.5s-6.5,2.9-6.5,6.5c0,3.6,2.9,6.5,6.5,6.5S192.5,74.3,192.5,70.7z"/>
	<path class="st10" d="M198.8,88.4c0,1.2-0.2,2.3-0.5,3.4h-24.7c-0.3-1.1-0.5-2.2-0.5-3.4c0-4.6,2.4-8.6,6-10.8
		c1.7,1.9,4.1,3.1,6.8,3.1c2.7,0,5.1-1.2,6.8-3.1C196.4,79.9,198.8,83.9,198.8,88.4z"/>
	<path class="st10" d="M192.4,122.7c0-3.6-2.9-6.5-6.5-6.5c-3.6,0-6.5,2.9-6.5,6.5c0,3.6,2.9,6.5,6.5,6.5
		C189.5,129.2,192.4,126.3,192.4,122.7z"/>
	<path class="st10" d="M198.7,140.5c0,1.2-0.2,2.3-0.5,3.4h-24.7c-0.3-1.1-0.5-2.2-0.5-3.4c0-4.6,2.4-8.6,6-10.8
		c1.7,1.9,4.1,3.1,6.8,3.1c2.7,0,5.1-1.2,6.8-3.1C196.3,131.9,198.7,135.9,198.7,140.5z"/>
	<path class="st10" d="M224.7,122.7c0-3.6-2.9-6.5-6.5-6.5c-3.6,0-6.5,2.9-6.5,6.5c0,3.6,2.9,6.5,6.5,6.5
		C221.7,129.2,224.7,126.3,224.7,122.7z"/>
	<path class="st10" d="M230.9,140.5c0,1.2-0.2,2.3-0.5,3.4h-24.7c-0.3-1.1-0.5-2.2-0.5-3.4c0-4.6,2.4-8.6,6-10.8
		c1.7,1.9,4.1,3.1,6.8,3.1c2.7,0,5.1-1.2,6.8-3.1C228.5,131.9,230.9,135.9,230.9,140.5z"/>
	<polyline class="st10" points="218.2,111.2 218.2,102.4 185.9,102.4 153.8,102.4 153.8,111.2 	"/>
	<polyline class="st10" points="185.9,111.2 185.9,102.4 185.9,95.2 	"/>
</g>
<g>
	<ellipse transform="matrix(0.1608 -0.987 0.987 0.1608 99.0327 285.8588)" class="st12" cx="217.6" cy="84.7" rx="5.7" ry="5.7"/>
	<path class="st12" d="M205.2,103.4c0-4.9,2.8-9.1,7-11.2c1.6,0.9,3.5,1.4,5.5,1.4s3.8-0.5,5.5-1.4c4.1,2,6.9,6.3,6.9,11.2"/>
	
		<ellipse transform="matrix(2.889075e-02 -0.9996 0.9996 2.889075e-02 23.7883 275.51)" class="st12" cx="153.7" cy="125.5" rx="5.7" ry="5.7"/>
	<path class="st12" d="M141.3,144.2c0-4.9,2.8-9.1,7-11.2c1.6,0.9,3.5,1.4,5.5,1.4s3.8-0.5,5.5-1.4c4.1,2,6.9,6.3,6.9,11.2"/>
	
		<ellipse transform="matrix(7.654626e-02 -0.9971 0.9971 7.654626e-02 47.3645 302.1644)" class="st12" cx="186.8" cy="125.5" rx="5.7" ry="5.7"/>
	<path class="st12" d="M174.4,144.2c0-4.9,2.8-9.1,7-11.2c1.6,0.9,3.5,1.4,5.5,1.4s3.8-0.5,5.5-1.4c4.1,2,6.9,6.3,6.9,11.2"/>
	
		<ellipse transform="matrix(7.654624e-02 -0.9971 0.9971 7.654624e-02 76.4576 333.5766)" class="st12" cx="218.3" cy="125.5" rx="5.7" ry="5.7"/>
	<path class="st12" d="M205.9,144.2c0-4.9,2.8-9.1,7-11.2c1.6,0.9,3.5,1.4,5.5,1.4s3.8-0.5,5.5-1.4c4.1,2,6.9,6.3,6.9,11.2"/>
	<path class="st12" d="M147.3,68.1h49.3v29.3c0,3.2-2.6,5.8-5.8,5.8h-37.6c-3.2,0-5.8-2.6-5.8-5.8V68.1z"/>
	<line class="st12" x1="160.2" y1="96.8" x2="190" y2="96.8"/>
	<rect x="180.3" y="79" class="st12" width="5.2" height="17.8"/>
	<rect x="175" y="82.3" class="st12" width="5.2" height="14.5"/>
	<rect x="169.8" y="85.4" class="st12" width="5.2" height="11.4"/>
	<rect x="164.6" y="88.1" class="st12" width="5.2" height="8.7"/>
	<rect x="141.8" y="63.8" class="st12" width="60" height="4.3"/>
</g>
</svg>
